<?xml version="1.0" encoding="utf-8" standalone="no"?>
<!DOCTYPE svg PUBLIC "-//W3C//DTD SVG 1.1//EN"
  "http://www.w3.org/Graphics/SVG/1.1/DTD/svg11.dtd">
<!-- Created with matplotlib (http://matplotlib.org/) -->
<svg height="280pt" version="1.1" viewBox="0 0 433 280" width="433pt" xmlns="http://www.w3.org/2000/svg" xmlns:xlink="http://www.w3.org/1999/xlink">
 <defs>
  <style type="text/css">
*{stroke-linecap:butt;stroke-linejoin:round;}
  </style>
 </defs>
 <g id="figure_1">
  <g id="patch_1">
   <path d="M -0 280.512 
L 433.391875 280.512 
L 433.391875 0 
L -0 0 
z
" style="fill:#ffffff;"/>
  </g>
  <g id="axes_1">
   <g id="patch_2">
    <path d="M 42.596625 273.312 
L 399.716625 273.312 
L 399.716625 7.2 
L 42.596625 7.2 
z
" style="fill:#ffffff;"/>
   </g>
   <g id="matplotlib.axis_1"/>
   <g id="matplotlib.axis_2">
    <g id="ytick_1">
     <g id="text_1">
      <!-- 23:00 -->
      <defs>
       <path d="M 46.703125 51.59375 
Q 46.703125 48 45.25 44.640625 
Q 43.796875 41.296875 41.390625 38.046875 
Q 39 34.796875 36 31.640625 
Q 33 28.5 30 25.5 
Q 28.296875 23.796875 26.046875 21.5 
Q 23.796875 19.203125 21.796875 16.703125 
Q 19.796875 14.203125 18.4375 11.890625 
Q 17.09375 9.59375 17.09375 7.90625 
L 49 7.90625 
L 49 0 
L 7 0 
Q 6.90625 0.59375 6.90625 1.1875 
Q 6.90625 1.796875 6.90625 2.296875 
Q 6.90625 7 8.453125 11.046875 
Q 10 15.09375 12.5 18.6875 
Q 15 22.296875 18.09375 25.5 
Q 21.203125 28.703125 24.203125 31.703125 
Q 26.703125 34.09375 28.953125 36.4375 
Q 31.203125 38.796875 32.953125 41.140625 
Q 34.703125 43.5 35.75 46 
Q 36.796875 48.5 36.796875 51.296875 
Q 36.796875 54.296875 35.84375 56.390625 
Q 34.90625 58.5 33.296875 59.890625 
Q 31.703125 61.296875 29.546875 61.9375 
Q 27.40625 62.59375 25 62.59375 
Q 22.09375 62.59375 19.6875 61.796875 
Q 17.296875 61 15.390625 59.953125 
Q 13.5 58.90625 12.203125 57.75 
Q 10.90625 56.59375 10.203125 56 
L 5.59375 62.59375 
Q 6.5 63.59375 8.296875 65.046875 
Q 10.09375 66.5 12.59375 67.796875 
Q 15.09375 69.09375 18.1875 70 
Q 21.296875 70.90625 24.90625 70.90625 
Q 35.796875 70.90625 41.25 65.84375 
Q 46.703125 60.796875 46.703125 51.59375 
" id="Ubuntu-32"/>
       <path d="M 22.59375 6.796875 
Q 31.5 6.796875 35.34375 10.296875 
Q 39.203125 13.796875 39.203125 19.703125 
Q 39.203125 23.5 37.59375 26.09375 
Q 36 28.703125 33.390625 30.25 
Q 30.796875 31.796875 27.34375 32.4375 
Q 23.90625 33.09375 20.296875 33.09375 
L 17.90625 33.09375 
L 17.90625 40.703125 
L 21.203125 40.703125 
Q 23.703125 40.703125 26.34375 41.203125 
Q 29 41.703125 31.203125 43 
Q 33.40625 44.296875 34.796875 46.546875 
Q 36.203125 48.796875 36.203125 52.203125 
Q 36.203125 55 35.203125 57 
Q 34.203125 59 32.546875 60.296875 
Q 30.90625 61.59375 28.75 62.140625 
Q 26.59375 62.703125 24.203125 62.703125 
Q 19.40625 62.703125 16.046875 61.296875 
Q 12.703125 59.90625 10.40625 58.40625 
L 6.796875 65.5 
Q 8 66.296875 9.84375 67.25 
Q 11.703125 68.203125 14 69 
Q 16.296875 69.796875 18.9375 70.34375 
Q 21.59375 70.90625 24.5 70.90625 
Q 30 70.90625 34 69.546875 
Q 38 68.203125 40.59375 65.75 
Q 43.203125 63.296875 44.5 59.9375 
Q 45.796875 56.59375 45.796875 52.703125 
Q 45.796875 47.296875 42.6875 43.4375 
Q 39.59375 39.59375 35.203125 37.59375 
Q 37.90625 36.796875 40.40625 35.296875 
Q 42.90625 33.796875 44.75 31.5 
Q 46.59375 29.203125 47.75 26.203125 
Q 48.90625 23.203125 48.90625 19.5 
Q 48.90625 15 47.34375 11.140625 
Q 45.796875 7.296875 42.546875 4.5 
Q 39.296875 1.703125 34.390625 0.09375 
Q 29.5 -1.5 22.796875 -1.5 
Q 20.203125 -1.5 17.453125 -1.09375 
Q 14.703125 -0.703125 12.296875 -0.09375 
Q 9.90625 0.5 8.09375 1.09375 
Q 6.296875 1.703125 5.5 2.09375 
L 7.296875 10.203125 
Q 9 9.40625 12.953125 8.09375 
Q 16.90625 6.796875 22.59375 6.796875 
" id="Ubuntu-33"/>
       <path d="M 19 5.40625 
Q 19 2.703125 17.203125 0.703125 
Q 15.40625 -1.296875 12.296875 -1.296875 
Q 9.203125 -1.296875 7.390625 0.703125 
Q 5.59375 2.703125 5.59375 5.40625 
Q 5.59375 8.09375 7.390625 10.09375 
Q 9.203125 12.09375 12.296875 12.09375 
Q 15.40625 12.09375 17.203125 10.09375 
Q 19 8.09375 19 5.40625 
M 19 45.40625 
Q 19 42.703125 17.203125 40.703125 
Q 15.40625 38.703125 12.296875 38.703125 
Q 9.203125 38.703125 7.390625 40.703125 
Q 5.59375 42.703125 5.59375 45.40625 
Q 5.59375 48.09375 7.390625 50.09375 
Q 9.203125 52.09375 12.296875 52.09375 
Q 15.40625 52.09375 17.203125 50.09375 
Q 19 48.09375 19 45.40625 
" id="Ubuntu-3a"/>
       <path d="M 5 34.703125 
Q 5 52.09375 11.140625 61.5 
Q 17.296875 70.90625 28.203125 70.90625 
Q 39.09375 70.90625 45.25 61.5 
Q 51.40625 52.09375 51.40625 34.703125 
Q 51.40625 17.296875 45.25 7.890625 
Q 39.09375 -1.5 28.203125 -1.5 
Q 17.296875 -1.5 11.140625 7.890625 
Q 5 17.296875 5 34.703125 
M 41.59375 34.703125 
Q 41.59375 40.40625 40.9375 45.5 
Q 40.296875 50.59375 38.75 54.390625 
Q 37.203125 58.203125 34.59375 60.453125 
Q 32 62.703125 28.203125 62.703125 
Q 24.40625 62.703125 21.796875 60.453125 
Q 19.203125 58.203125 17.640625 54.390625 
Q 16.09375 50.59375 15.4375 45.5 
Q 14.796875 40.40625 14.796875 34.703125 
Q 14.796875 29 15.4375 23.890625 
Q 16.09375 18.796875 17.640625 15 
Q 19.203125 11.203125 21.796875 8.953125 
Q 24.40625 6.703125 28.203125 6.703125 
Q 32 6.703125 34.59375 8.953125 
Q 37.203125 11.203125 38.75 15 
Q 40.296875 18.796875 40.9375 23.890625 
Q 41.59375 29 41.59375 34.703125 
" id="Ubuntu-30"/>
      </defs>
      <g style="fill:#262626;" transform="translate(19.079125 260.253868)scale(0.08 -0.08)">
       <use xlink:href="#Ubuntu-32"/>
       <use x="56.399994" xlink:href="#Ubuntu-33"/>
       <use x="112.799988" xlink:href="#Ubuntu-3a"/>
       <use x="137.399979" xlink:href="#Ubuntu-30"/>
       <use x="193.799973" xlink:href="#Ubuntu-30"/>
      </g>
     </g>
    </g>
    <g id="ytick_2">
     <g id="text_2">
      <!-- 22:00 -->
      <g style="fill:#262626;" transform="translate(19.079125 250.089162)scale(0.08 -0.08)">
       <use xlink:href="#Ubuntu-32"/>
       <use x="56.399994" xlink:href="#Ubuntu-32"/>
       <use x="112.799988" xlink:href="#Ubuntu-3a"/>
       <use x="137.399979" xlink:href="#Ubuntu-30"/>
       <use x="193.799973" xlink:href="#Ubuntu-30"/>
      </g>
     </g>
    </g>
    <g id="ytick_3">
     <g id="text_3">
      <!-- 21:00 -->
      <defs>
       <path d="M 9.296875 55 
Q 15 57.203125 20.390625 60.640625 
Q 25.796875 64.09375 30.296875 69.296875 
L 36.90625 69.296875 
L 36.90625 0 
L 27.59375 0 
L 27.59375 56.40625 
Q 26.40625 55.296875 24.65625 54.09375 
Q 22.90625 52.90625 20.84375 51.796875 
Q 18.796875 50.703125 16.546875 49.703125 
Q 14.296875 48.703125 12.203125 48 
z
" id="Ubuntu-31"/>
      </defs>
      <g style="fill:#262626;" transform="translate(19.079125 239.924456)scale(0.08 -0.08)">
       <use xlink:href="#Ubuntu-32"/>
       <use x="56.399994" xlink:href="#Ubuntu-31"/>
       <use x="112.799988" xlink:href="#Ubuntu-3a"/>
       <use x="137.399979" xlink:href="#Ubuntu-30"/>
       <use x="193.799973" xlink:href="#Ubuntu-30"/>
      </g>
     </g>
    </g>
    <g id="ytick_4">
     <g id="text_4">
      <!-- 20:00 -->
      <g style="fill:#262626;" transform="translate(19.079125 229.75975)scale(0.08 -0.08)">
       <use xlink:href="#Ubuntu-32"/>
       <use x="56.399994" xlink:href="#Ubuntu-30"/>
       <use x="112.799988" xlink:href="#Ubuntu-3a"/>
       <use x="137.399979" xlink:href="#Ubuntu-30"/>
       <use x="193.799973" xlink:href="#Ubuntu-30"/>
      </g>
     </g>
    </g>
    <g id="ytick_5">
     <g id="text_5">
      <!-- 19:00 -->
      <defs>
       <path d="M 50.09375 41.59375 
Q 50.09375 21 39.84375 10.453125 
Q 29.59375 -0.09375 9.40625 -0.203125 
L 9.09375 7.59375 
Q 15.40625 7.59375 20.453125 8.796875 
Q 25.5 10 29.296875 12.640625 
Q 33.09375 15.296875 35.640625 19.5 
Q 38.203125 23.703125 39.40625 29.796875 
Q 36.796875 28.59375 33.5 27.84375 
Q 30.203125 27.09375 26.703125 27.09375 
Q 20.796875 27.09375 16.6875 28.84375 
Q 12.59375 30.59375 10 33.546875 
Q 7.40625 36.5 6.25 40.34375 
Q 5.09375 44.203125 5.09375 48.40625 
Q 5.09375 52.09375 6.390625 56.09375 
Q 7.703125 60.09375 10.34375 63.390625 
Q 13 66.703125 17.09375 68.796875 
Q 21.203125 70.90625 26.796875 70.90625 
Q 32.5 70.90625 36.84375 68.90625 
Q 41.203125 66.90625 44.140625 63.09375 
Q 47.09375 59.296875 48.59375 53.84375 
Q 50.09375 48.40625 50.09375 41.59375 
M 27.703125 34.703125 
Q 31.203125 34.703125 34.296875 35.34375 
Q 37.40625 36 40.296875 37.296875 
Q 40.40625 38.40625 40.40625 39.453125 
Q 40.40625 40.5 40.40625 41.59375 
Q 40.40625 45.90625 39.796875 49.84375 
Q 39.203125 53.796875 37.640625 56.75 
Q 36.09375 59.703125 33.5 61.453125 
Q 30.90625 63.203125 26.90625 63.203125 
Q 23.59375 63.203125 21.296875 61.796875 
Q 19 60.40625 17.5 58.25 
Q 16 56.09375 15.34375 53.546875 
Q 14.703125 51 14.703125 48.59375 
Q 14.703125 41.796875 17.953125 38.25 
Q 21.203125 34.703125 27.703125 34.703125 
" id="Ubuntu-39"/>
      </defs>
      <g style="fill:#262626;" transform="translate(19.079125 219.595044)scale(0.08 -0.08)">
       <use xlink:href="#Ubuntu-31"/>
       <use x="56.399994" xlink:href="#Ubuntu-39"/>
       <use x="112.799988" xlink:href="#Ubuntu-3a"/>
       <use x="137.399979" xlink:href="#Ubuntu-30"/>
       <use x="193.799973" xlink:href="#Ubuntu-30"/>
      </g>
     </g>
    </g>
    <g id="ytick_6">
     <g id="text_6">
      <!-- 18:00 -->
      <defs>
       <path d="M 50.90625 18 
Q 50.90625 13.796875 49.453125 10.25 
Q 48 6.703125 45.140625 4.046875 
Q 42.296875 1.40625 38 -0.046875 
Q 33.703125 -1.5 28.09375 -1.5 
Q 21.59375 -1.5 17.25 0.34375 
Q 12.90625 2.203125 10.296875 5 
Q 7.703125 7.796875 6.59375 11.140625 
Q 5.5 14.5 5.5 17.5 
Q 5.5 20.40625 6.453125 23.046875 
Q 7.40625 25.703125 8.953125 28 
Q 10.5 30.296875 12.546875 32.140625 
Q 14.59375 34 16.90625 35.40625 
Q 7.09375 41 7.09375 51.90625 
Q 7.09375 55.703125 8.59375 59.140625 
Q 10.09375 62.59375 12.84375 65.1875 
Q 15.59375 67.796875 19.5 69.34375 
Q 23.40625 70.90625 28.203125 70.90625 
Q 33.796875 70.90625 37.796875 69.203125 
Q 41.796875 67.5 44.34375 64.84375 
Q 46.90625 62.203125 48.046875 59 
Q 49.203125 55.796875 49.203125 52.796875 
Q 49.203125 49.90625 48.34375 47.34375 
Q 47.5 44.796875 46.046875 42.59375 
Q 44.59375 40.40625 42.75 38.703125 
Q 40.90625 37 38.90625 35.703125 
Q 50.703125 30.09375 50.90625 18 
M 14.90625 17.40625 
Q 14.90625 15.59375 15.546875 13.640625 
Q 16.203125 11.703125 17.796875 10.046875 
Q 19.40625 8.40625 21.90625 7.296875 
Q 24.40625 6.203125 28.203125 6.203125 
Q 31.59375 6.203125 34.140625 7.203125 
Q 36.703125 8.203125 38.296875 9.75 
Q 39.90625 11.296875 40.703125 13.296875 
Q 41.5 15.296875 41.5 17.40625 
Q 41.5 20.59375 40.296875 23 
Q 39.09375 25.40625 36.84375 27.203125 
Q 34.59375 29 31.4375 30.25 
Q 28.296875 31.5 24.296875 32.40625 
Q 19.796875 29.90625 17.34375 26.203125 
Q 14.90625 22.5 14.90625 17.40625 
M 39.90625 52.90625 
Q 39.90625 54.40625 39.25 56.203125 
Q 38.59375 58 37.1875 59.546875 
Q 35.796875 61.09375 33.59375 62.140625 
Q 31.40625 63.203125 28.203125 63.203125 
Q 25 63.203125 22.75 62.203125 
Q 20.5 61.203125 19.09375 59.640625 
Q 17.703125 58.09375 17.046875 56.25 
Q 16.40625 54.40625 16.40625 52.59375 
Q 16.40625 50.40625 17.203125 48.203125 
Q 18 46 19.703125 44.09375 
Q 21.40625 42.203125 24.15625 40.703125 
Q 26.90625 39.203125 30.703125 38.296875 
Q 34.90625 40.796875 37.40625 44.140625 
Q 39.90625 47.5 39.90625 52.90625 
" id="Ubuntu-38"/>
      </defs>
      <g style="fill:#262626;" transform="translate(19.079125 209.430338)scale(0.08 -0.08)">
       <use xlink:href="#Ubuntu-31"/>
       <use x="56.399994" xlink:href="#Ubuntu-38"/>
       <use x="112.799988" xlink:href="#Ubuntu-3a"/>
       <use x="137.399979" xlink:href="#Ubuntu-30"/>
       <use x="193.799973" xlink:href="#Ubuntu-30"/>
      </g>
     </g>
    </g>
    <g id="ytick_7">
     <g id="text_7">
      <!-- 17:00 -->
      <defs>
       <path d="M 16.296875 0 
Q 16.90625 8 19.15625 16.84375 
Q 21.40625 25.703125 24.703125 34.046875 
Q 28 42.40625 31.953125 49.546875 
Q 35.90625 56.703125 39.703125 61.203125 
L 6 61.203125 
L 6 69.296875 
L 50.09375 69.296875 
L 50.09375 61.59375 
Q 46.796875 57.796875 42.796875 51.140625 
Q 38.796875 44.5 35.25 36.25 
Q 31.703125 28 29.140625 18.640625 
Q 26.59375 9.296875 26 0 
z
" id="Ubuntu-37"/>
      </defs>
      <g style="fill:#262626;" transform="translate(19.079125 199.265632)scale(0.08 -0.08)">
       <use xlink:href="#Ubuntu-31"/>
       <use x="56.399994" xlink:href="#Ubuntu-37"/>
       <use x="112.799988" xlink:href="#Ubuntu-3a"/>
       <use x="137.399979" xlink:href="#Ubuntu-30"/>
       <use x="193.799973" xlink:href="#Ubuntu-30"/>
      </g>
     </g>
    </g>
    <g id="ytick_8">
     <g id="text_8">
      <!-- 16:00 -->
      <defs>
       <path d="M 6.296875 27.796875 
Q 6.296875 37.90625 9.09375 45.65625 
Q 11.90625 53.40625 17.046875 58.703125 
Q 22.203125 64 29.546875 66.75 
Q 36.90625 69.5 46.09375 69.59375 
L 46.796875 61.796875 
Q 40.90625 61.703125 36.046875 60.5 
Q 31.203125 59.296875 27.390625 56.6875 
Q 23.59375 54.09375 21 49.9375 
Q 18.40625 45.796875 17.09375 39.703125 
Q 19.703125 40.90625 22.953125 41.703125 
Q 26.203125 42.5 29.703125 42.5 
Q 35.59375 42.5 39.6875 40.703125 
Q 43.796875 38.90625 46.390625 35.953125 
Q 49 33 50.140625 29.140625 
Q 51.296875 25.296875 51.296875 21.09375 
Q 51.296875 17.296875 50 13.296875 
Q 48.703125 9.296875 46.046875 6 
Q 43.40625 2.703125 39.296875 0.59375 
Q 35.203125 -1.5 29.59375 -1.5 
Q 18.203125 -1.5 12.25 6.296875 
Q 6.296875 14.09375 6.296875 27.796875 
M 28.703125 34.90625 
Q 25.203125 34.90625 22.203125 34.25 
Q 19.203125 33.59375 16.203125 32.296875 
Q 16.09375 31.203125 16.046875 30.046875 
Q 16 28.90625 16 27.796875 
Q 16 23.40625 16.59375 19.5 
Q 17.203125 15.59375 18.75 12.640625 
Q 20.296875 9.703125 22.890625 7.953125 
Q 25.5 6.203125 29.5 6.203125 
Q 32.796875 6.203125 35.09375 7.59375 
Q 37.40625 9 38.90625 11.203125 
Q 40.40625 13.40625 41.046875 15.953125 
Q 41.703125 18.5 41.703125 20.90625 
Q 41.703125 27.703125 38.453125 31.296875 
Q 35.203125 34.90625 28.703125 34.90625 
" id="Ubuntu-36"/>
      </defs>
      <g style="fill:#262626;" transform="translate(19.079125 189.100926)scale(0.08 -0.08)">
       <use xlink:href="#Ubuntu-31"/>
       <use x="56.399994" xlink:href="#Ubuntu-36"/>
       <use x="112.799988" xlink:href="#Ubuntu-3a"/>
       <use x="137.399979" xlink:href="#Ubuntu-30"/>
       <use x="193.799973" xlink:href="#Ubuntu-30"/>
      </g>
     </g>
    </g>
    <g id="ytick_9">
     <g id="text_9">
      <!-- 15:00 -->
      <defs>
       <path d="M 19.90625 42.59375 
Q 35 42 42.046875 36 
Q 49.09375 30 49.09375 19.703125 
Q 49.09375 15.09375 47.546875 11.1875 
Q 46 7.296875 42.84375 4.5 
Q 39.703125 1.703125 34.890625 0.09375 
Q 30.09375 -1.5 23.5 -1.5 
Q 20.90625 -1.5 18.203125 -1.09375 
Q 15.5 -0.703125 13.203125 -0.09375 
Q 10.90625 0.5 9.09375 1.09375 
Q 7.296875 1.703125 6.5 2.09375 
L 8.296875 10.203125 
Q 10 9.40625 13.84375 8.09375 
Q 17.703125 6.796875 23.296875 6.796875 
Q 27.796875 6.796875 30.84375 7.796875 
Q 33.90625 8.796875 35.796875 10.5 
Q 37.703125 12.203125 38.546875 14.453125 
Q 39.40625 16.703125 39.40625 19.203125 
Q 39.40625 23 38.09375 25.953125 
Q 36.796875 28.90625 33.5 30.90625 
Q 30.203125 32.90625 24.703125 33.953125 
Q 19.203125 35 10.796875 35 
Q 11.40625 39.90625 11.75 44.203125 
Q 12.09375 48.5 12.390625 52.59375 
Q 12.703125 56.703125 12.890625 60.75 
Q 13.09375 64.796875 13.296875 69.296875 
L 46.703125 69.296875 
L 46.703125 61.40625 
L 21.40625 61.40625 
Q 21.296875 59.90625 21.09375 57.34375 
Q 20.90625 54.796875 20.703125 52.046875 
Q 20.5 49.296875 20.296875 46.6875 
Q 20.09375 44.09375 19.90625 42.59375 
" id="Ubuntu-35"/>
      </defs>
      <g style="fill:#262626;" transform="translate(19.079125 178.936221)scale(0.08 -0.08)">
       <use xlink:href="#Ubuntu-31"/>
       <use x="56.399994" xlink:href="#Ubuntu-35"/>
       <use x="112.799988" xlink:href="#Ubuntu-3a"/>
       <use x="137.399979" xlink:href="#Ubuntu-30"/>
       <use x="193.799973" xlink:href="#Ubuntu-30"/>
      </g>
     </g>
    </g>
    <g id="ytick_10">
     <g id="text_10">
      <!-- 14:00 -->
      <defs>
       <path d="M 4 24 
Q 5.90625 28.40625 9.203125 34.25 
Q 12.5 40.09375 16.640625 46.296875 
Q 20.796875 52.5 25.546875 58.5 
Q 30.296875 64.5 35.09375 69.296875 
L 44 69.296875 
L 44 25.296875 
L 52.203125 25.296875 
L 52.203125 17.703125 
L 44 17.703125 
L 44 0 
L 35 0 
L 35 17.703125 
L 4 17.703125 
z
M 35 58.296875 
Q 32 55.09375 28.953125 51.140625 
Q 25.90625 47.203125 23 42.890625 
Q 20.09375 38.59375 17.546875 34.09375 
Q 15 29.59375 13 25.296875 
L 35 25.296875 
z
" id="Ubuntu-34"/>
      </defs>
      <g style="fill:#262626;" transform="translate(19.079125 168.771515)scale(0.08 -0.08)">
       <use xlink:href="#Ubuntu-31"/>
       <use x="56.399994" xlink:href="#Ubuntu-34"/>
       <use x="112.799988" xlink:href="#Ubuntu-3a"/>
       <use x="137.399979" xlink:href="#Ubuntu-30"/>
       <use x="193.799973" xlink:href="#Ubuntu-30"/>
      </g>
     </g>
    </g>
    <g id="ytick_11">
     <g id="text_11">
      <!-- 13:00 -->
      <g style="fill:#262626;" transform="translate(19.079125 158.606809)scale(0.08 -0.08)">
       <use xlink:href="#Ubuntu-31"/>
       <use x="56.399994" xlink:href="#Ubuntu-33"/>
       <use x="112.799988" xlink:href="#Ubuntu-3a"/>
       <use x="137.399979" xlink:href="#Ubuntu-30"/>
       <use x="193.799973" xlink:href="#Ubuntu-30"/>
      </g>
     </g>
    </g>
    <g id="ytick_12">
     <g id="text_12">
      <!-- 12:00 -->
      <g style="fill:#262626;" transform="translate(19.079125 148.442103)scale(0.08 -0.08)">
       <use xlink:href="#Ubuntu-31"/>
       <use x="56.399994" xlink:href="#Ubuntu-32"/>
       <use x="112.799988" xlink:href="#Ubuntu-3a"/>
       <use x="137.399979" xlink:href="#Ubuntu-30"/>
       <use x="193.799973" xlink:href="#Ubuntu-30"/>
      </g>
     </g>
    </g>
    <g id="ytick_13">
     <g id="text_13">
      <!-- 11:00 -->
      <g style="fill:#262626;" transform="translate(19.079125 138.277397)scale(0.08 -0.08)">
       <use xlink:href="#Ubuntu-31"/>
       <use x="56.399994" xlink:href="#Ubuntu-31"/>
       <use x="112.799988" xlink:href="#Ubuntu-3a"/>
       <use x="137.399979" xlink:href="#Ubuntu-30"/>
       <use x="193.799973" xlink:href="#Ubuntu-30"/>
      </g>
     </g>
    </g>
    <g id="ytick_14">
     <g id="text_14">
      <!-- 10:00 -->
      <g style="fill:#262626;" transform="translate(19.079125 128.112691)scale(0.08 -0.08)">
       <use xlink:href="#Ubuntu-31"/>
       <use x="56.399994" xlink:href="#Ubuntu-30"/>
       <use x="112.799988" xlink:href="#Ubuntu-3a"/>
       <use x="137.399979" xlink:href="#Ubuntu-30"/>
       <use x="193.799973" xlink:href="#Ubuntu-30"/>
      </g>
     </g>
    </g>
    <g id="ytick_15">
     <g id="text_15">
      <!-- 09:00 -->
      <g style="fill:#262626;" transform="translate(19.079125 117.947985)scale(0.08 -0.08)">
       <use xlink:href="#Ubuntu-30"/>
       <use x="56.399994" xlink:href="#Ubuntu-39"/>
       <use x="112.799988" xlink:href="#Ubuntu-3a"/>
       <use x="137.399979" xlink:href="#Ubuntu-30"/>
       <use x="193.799973" xlink:href="#Ubuntu-30"/>
      </g>
     </g>
    </g>
    <g id="ytick_16">
     <g id="text_16">
      <!-- 08:00 -->
      <g style="fill:#262626;" transform="translate(19.079125 107.783279)scale(0.08 -0.08)">
       <use xlink:href="#Ubuntu-30"/>
       <use x="56.399994" xlink:href="#Ubuntu-38"/>
       <use x="112.799988" xlink:href="#Ubuntu-3a"/>
       <use x="137.399979" xlink:href="#Ubuntu-30"/>
       <use x="193.799973" xlink:href="#Ubuntu-30"/>
      </g>
     </g>
    </g>
    <g id="ytick_17">
     <g id="text_17">
      <!-- 07:00 -->
      <g style="fill:#262626;" transform="translate(19.079125 97.618574)scale(0.08 -0.08)">
       <use xlink:href="#Ubuntu-30"/>
       <use x="56.399994" xlink:href="#Ubuntu-37"/>
       <use x="112.799988" xlink:href="#Ubuntu-3a"/>
       <use x="137.399979" xlink:href="#Ubuntu-30"/>
       <use x="193.799973" xlink:href="#Ubuntu-30"/>
      </g>
     </g>
    </g>
    <g id="ytick_18">
     <g id="text_18">
      <!-- 06:00 -->
      <g style="fill:#262626;" transform="translate(19.079125 87.453868)scale(0.08 -0.08)">
       <use xlink:href="#Ubuntu-30"/>
       <use x="56.399994" xlink:href="#Ubuntu-36"/>
       <use x="112.799988" xlink:href="#Ubuntu-3a"/>
       <use x="137.399979" xlink:href="#Ubuntu-30"/>
       <use x="193.799973" xlink:href="#Ubuntu-30"/>
      </g>
     </g>
    </g>
    <g id="ytick_19">
     <g id="text_19">
      <!-- 05:00 -->
      <g style="fill:#262626;" transform="translate(19.079125 77.289162)scale(0.08 -0.08)">
       <use xlink:href="#Ubuntu-30"/>
       <use x="56.399994" xlink:href="#Ubuntu-35"/>
       <use x="112.799988" xlink:href="#Ubuntu-3a"/>
       <use x="137.399979" xlink:href="#Ubuntu-30"/>
       <use x="193.799973" xlink:href="#Ubuntu-30"/>
      </g>
     </g>
    </g>
    <g id="ytick_20">
     <g id="text_20">
      <!-- 04:00 -->
      <g style="fill:#262626;" transform="translate(19.079125 67.124456)scale(0.08 -0.08)">
       <use xlink:href="#Ubuntu-30"/>
       <use x="56.399994" xlink:href="#Ubuntu-34"/>
       <use x="112.799988" xlink:href="#Ubuntu-3a"/>
       <use x="137.399979" xlink:href="#Ubuntu-30"/>
       <use x="193.799973" xlink:href="#Ubuntu-30"/>
      </g>
     </g>
    </g>
    <g id="ytick_21">
     <g id="text_21">
      <!-- 03:00 -->
      <g style="fill:#262626;" transform="translate(19.079125 56.95975)scale(0.08 -0.08)">
       <use xlink:href="#Ubuntu-30"/>
       <use x="56.399994" xlink:href="#Ubuntu-33"/>
       <use x="112.799988" xlink:href="#Ubuntu-3a"/>
       <use x="137.399979" xlink:href="#Ubuntu-30"/>
       <use x="193.799973" xlink:href="#Ubuntu-30"/>
      </g>
     </g>
    </g>
    <g id="ytick_22">
     <g id="text_22">
      <!-- 02:00 -->
      <g style="fill:#262626;" transform="translate(19.079125 46.795044)scale(0.08 -0.08)">
       <use xlink:href="#Ubuntu-30"/>
       <use x="56.399994" xlink:href="#Ubuntu-32"/>
       <use x="112.799988" xlink:href="#Ubuntu-3a"/>
       <use x="137.399979" xlink:href="#Ubuntu-30"/>
       <use x="193.799973" xlink:href="#Ubuntu-30"/>
      </g>
     </g>
    </g>
    <g id="ytick_23">
     <g id="text_23">
      <!-- 01:00 -->
      <g style="fill:#262626;" transform="translate(19.079125 36.630338)scale(0.08 -0.08)">
       <use xlink:href="#Ubuntu-30"/>
       <use x="56.399994" xlink:href="#Ubuntu-31"/>
       <use x="112.799988" xlink:href="#Ubuntu-3a"/>
       <use x="137.399979" xlink:href="#Ubuntu-30"/>
       <use x="193.799973" xlink:href="#Ubuntu-30"/>
      </g>
     </g>
    </g>
    <g id="ytick_24">
     <g id="text_24">
      <!-- 00:00 -->
      <g style="fill:#262626;" transform="translate(19.079125 26.465632)scale(0.08 -0.08)">
       <use xlink:href="#Ubuntu-30"/>
       <use x="56.399994" xlink:href="#Ubuntu-30"/>
       <use x="112.799988" xlink:href="#Ubuntu-3a"/>
       <use x="137.399979" xlink:href="#Ubuntu-30"/>
       <use x="193.799973" xlink:href="#Ubuntu-30"/>
      </g>
     </g>
    </g>
   </g>
   <g id="patch_3">
    <path clip-path="url(#pa6080add69)" d="M 42.596625 261.216 
L 42.596625 261.216 
L 42.596625 253.084235 
L 42.596625 253.084235 
z
" style="fill:#1f77b4;"/>
   </g>
   <g id="patch_4">
    <path clip-path="url(#pa6080add69)" d="M 42.596625 251.051294 
L 86.482339 251.051294 
L 86.482339 242.919529 
L 42.596625 242.919529 
z
" style="fill:#1f77b4;"/>
   </g>
   <g id="patch_5">
    <path clip-path="url(#pa6080add69)" d="M 42.596625 240.886588 
L 64.539482 240.886588 
L 64.539482 232.754824 
L 42.596625 232.754824 
z
" style="fill:#1f77b4;"/>
   </g>
   <g id="patch_6">
    <path clip-path="url(#pa6080add69)" d="M 42.596625 230.721882 
L 86.482339 230.721882 
L 86.482339 222.590118 
L 42.596625 222.590118 
z
" style="fill:#1f77b4;"/>
   </g>
   <g id="patch_7">
    <path clip-path="url(#pa6080add69)" d="M 42.596625 220.557176 
L 113.910911 220.557176 
L 113.910911 212.425412 
L 42.596625 212.425412 
z
" style="fill:#1f77b4;"/>
   </g>
   <g id="patch_8">
    <path clip-path="url(#pa6080add69)" d="M 42.596625 210.392471 
L 124.882339 210.392471 
L 124.882339 202.260706 
L 42.596625 202.260706 
z
" style="fill:#1f77b4;"/>
   </g>
   <g id="patch_9">
    <path clip-path="url(#pa6080add69)" d="M 42.596625 200.227765 
L 124.882339 200.227765 
L 124.882339 192.096 
L 42.596625 192.096 
z
" style="fill:#1f77b4;"/>
   </g>
   <g id="patch_10">
    <path clip-path="url(#pa6080add69)" d="M 42.596625 190.063059 
L 196.196625 190.063059 
L 196.196625 181.931294 
L 42.596625 181.931294 
z
" style="fill:#1f77b4;"/>
   </g>
   <g id="patch_11">
    <path clip-path="url(#pa6080add69)" d="M 42.596625 179.898353 
L 229.110911 179.898353 
L 229.110911 171.766588 
L 42.596625 171.766588 
z
" style="fill:#1f77b4;"/>
   </g>
   <g id="patch_12">
    <path clip-path="url(#pa6080add69)" d="M 42.596625 169.733647 
L 240.082339 169.733647 
L 240.082339 161.601882 
L 42.596625 161.601882 
z
" style="fill:#1f77b4;"/>
   </g>
   <g id="patch_13">
    <path clip-path="url(#pa6080add69)" d="M 42.596625 159.568941 
L 201.682339 159.568941 
L 201.682339 151.437176 
L 42.596625 151.437176 
z
" style="fill:#1f77b4;"/>
   </g>
   <g id="patch_14">
    <path clip-path="url(#pa6080add69)" d="M 42.596625 149.404235 
L 174.253768 149.404235 
L 174.253768 141.272471 
L 42.596625 141.272471 
z
" style="fill:#1f77b4;"/>
   </g>
   <g id="patch_15">
    <path clip-path="url(#pa6080add69)" d="M 42.596625 139.239529 
L 382.710911 139.239529 
L 382.710911 131.107765 
L 42.596625 131.107765 
z
" style="fill:#1f77b4;"/>
   </g>
   <g id="patch_16">
    <path clip-path="url(#pa6080add69)" d="M 42.596625 129.074824 
L 212.653768 129.074824 
L 212.653768 120.943059 
L 42.596625 120.943059 
z
" style="fill:#1f77b4;"/>
   </g>
   <g id="patch_17">
    <path clip-path="url(#pa6080add69)" d="M 42.596625 118.910118 
L 196.196625 118.910118 
L 196.196625 110.778353 
L 42.596625 110.778353 
z
" style="fill:#1f77b4;"/>
   </g>
   <g id="patch_18">
    <path clip-path="url(#pa6080add69)" d="M 42.596625 108.745412 
L 212.653768 108.745412 
L 212.653768 100.613647 
L 42.596625 100.613647 
z
" style="fill:#1f77b4;"/>
   </g>
   <g id="patch_19">
    <path clip-path="url(#pa6080add69)" d="M 42.596625 98.580706 
L 119.396625 98.580706 
L 119.396625 90.448941 
L 42.596625 90.448941 
z
" style="fill:#1f77b4;"/>
   </g>
   <g id="patch_20">
    <path clip-path="url(#pa6080add69)" d="M 42.596625 88.416 
L 75.510911 88.416 
L 75.510911 80.284235 
L 42.596625 80.284235 
z
" style="fill:#1f77b4;"/>
   </g>
   <g id="patch_21">
    <path clip-path="url(#pa6080add69)" d="M 42.596625 78.251294 
L 42.596625 78.251294 
L 42.596625 70.119529 
L 42.596625 70.119529 
z
" style="fill:#1f77b4;"/>
   </g>
   <g id="patch_22">
    <path clip-path="url(#pa6080add69)" d="M 42.596625 68.086588 
L 48.082339 68.086588 
L 48.082339 59.954824 
L 42.596625 59.954824 
z
" style="fill:#1f77b4;"/>
   </g>
   <g id="patch_23">
    <path clip-path="url(#pa6080add69)" d="M 42.596625 57.921882 
L 42.596625 57.921882 
L 42.596625 49.790118 
L 42.596625 49.790118 
z
" style="fill:#1f77b4;"/>
   </g>
   <g id="patch_24">
    <path clip-path="url(#pa6080add69)" d="M 42.596625 47.757176 
L 42.596625 47.757176 
L 42.596625 39.625412 
L 42.596625 39.625412 
z
" style="fill:#1f77b4;"/>
   </g>
   <g id="patch_25">
    <path clip-path="url(#pa6080add69)" d="M 42.596625 37.592471 
L 42.596625 37.592471 
L 42.596625 29.460706 
L 42.596625 29.460706 
z
" style="fill:#1f77b4;"/>
   </g>
   <g id="patch_26">
    <path clip-path="url(#pa6080add69)" d="M 42.596625 27.427765 
L 42.596625 27.427765 
L 42.596625 19.296 
L 42.596625 19.296 
z
" style="fill:#1f77b4;"/>
   </g>
   <g id="patch_27">
    <path clip-path="url(#pa6080add69)" d="M 42.596625 261.216 
L 42.596625 261.216 
L 42.596625 253.084235 
L 42.596625 253.084235 
z
" style="fill:#ff7f0e;"/>
   </g>
   <g id="patch_28">
    <path clip-path="url(#pa6080add69)" d="M 42.596625 251.051294 
L 86.482339 251.051294 
L 86.482339 242.919529 
L 42.596625 242.919529 
z
" style="fill:#ff7f0e;"/>
   </g>
   <g id="patch_29">
    <path clip-path="url(#pa6080add69)" d="M 42.596625 240.886588 
L 64.539482 240.886588 
L 64.539482 232.754824 
L 42.596625 232.754824 
z
" style="fill:#ff7f0e;"/>
   </g>
   <g id="patch_30">
    <path clip-path="url(#pa6080add69)" d="M 42.596625 230.721882 
L 86.482339 230.721882 
L 86.482339 222.590118 
L 42.596625 222.590118 
z
" style="fill:#ff7f0e;"/>
   </g>
   <g id="patch_31">
    <path clip-path="url(#pa6080add69)" d="M 42.596625 220.557176 
L 113.910911 220.557176 
L 113.910911 212.425412 
L 42.596625 212.425412 
z
" style="fill:#ff7f0e;"/>
   </g>
   <g id="patch_32">
    <path clip-path="url(#pa6080add69)" d="M 42.596625 210.392471 
L 124.882339 210.392471 
L 124.882339 202.260706 
L 42.596625 202.260706 
z
" style="fill:#ff7f0e;"/>
   </g>
   <g id="patch_33">
    <path clip-path="url(#pa6080add69)" d="M 42.596625 200.227765 
L 124.882339 200.227765 
L 124.882339 192.096 
L 42.596625 192.096 
z
" style="fill:#ff7f0e;"/>
   </g>
   <g id="patch_34">
    <path clip-path="url(#pa6080add69)" d="M 42.596625 190.063059 
L 196.196625 190.063059 
L 196.196625 181.931294 
L 42.596625 181.931294 
z
" style="fill:#ff7f0e;"/>
   </g>
   <g id="patch_35">
    <path clip-path="url(#pa6080add69)" d="M 42.596625 179.898353 
L 229.110911 179.898353 
L 229.110911 171.766588 
L 42.596625 171.766588 
z
" style="fill:#ff7f0e;"/>
   </g>
   <g id="patch_36">
    <path clip-path="url(#pa6080add69)" d="M 42.596625 169.733647 
L 240.082339 169.733647 
L 240.082339 161.601882 
L 42.596625 161.601882 
z
" style="fill:#ff7f0e;"/>
   </g>
   <g id="patch_37">
    <path clip-path="url(#pa6080add69)" d="M 42.596625 159.568941 
L 201.682339 159.568941 
L 201.682339 151.437176 
L 42.596625 151.437176 
z
" style="fill:#ff7f0e;"/>
   </g>
   <g id="patch_38">
    <path clip-path="url(#pa6080add69)" d="M 42.596625 149.404235 
L 174.253768 149.404235 
L 174.253768 141.272471 
L 42.596625 141.272471 
z
" style="fill:#ff7f0e;"/>
   </g>
   <g id="patch_39">
    <path clip-path="url(#pa6080add69)" d="M 42.596625 139.239529 
L 305.910911 139.239529 
L 305.910911 131.107765 
L 42.596625 131.107765 
z
" style="fill:#ff7f0e;"/>
   </g>
   <g id="patch_40">
    <path clip-path="url(#pa6080add69)" d="M 42.596625 129.074824 
L 212.653768 129.074824 
L 212.653768 120.943059 
L 42.596625 120.943059 
z
" style="fill:#ff7f0e;"/>
   </g>
   <g id="patch_41">
    <path clip-path="url(#pa6080add69)" d="M 42.596625 118.910118 
L 196.196625 118.910118 
L 196.196625 110.778353 
L 42.596625 110.778353 
z
" style="fill:#ff7f0e;"/>
   </g>
   <g id="patch_42">
    <path clip-path="url(#pa6080add69)" d="M 42.596625 108.745412 
L 212.653768 108.745412 
L 212.653768 100.613647 
L 42.596625 100.613647 
z
" style="fill:#ff7f0e;"/>
   </g>
   <g id="patch_43">
    <path clip-path="url(#pa6080add69)" d="M 42.596625 98.580706 
L 119.396625 98.580706 
L 119.396625 90.448941 
L 42.596625 90.448941 
z
" style="fill:#ff7f0e;"/>
   </g>
   <g id="patch_44">
    <path clip-path="url(#pa6080add69)" d="M 42.596625 88.416 
L 75.510911 88.416 
L 75.510911 80.284235 
L 42.596625 80.284235 
z
" style="fill:#ff7f0e;"/>
   </g>
   <g id="patch_45">
    <path clip-path="url(#pa6080add69)" d="M 42.596625 78.251294 
L 42.596625 78.251294 
L 42.596625 70.119529 
L 42.596625 70.119529 
z
" style="fill:#ff7f0e;"/>
   </g>
   <g id="patch_46">
    <path clip-path="url(#pa6080add69)" d="M 42.596625 68.086588 
L 48.082339 68.086588 
L 48.082339 59.954824 
L 42.596625 59.954824 
z
" style="fill:#ff7f0e;"/>
   </g>
   <g id="patch_47">
    <path clip-path="url(#pa6080add69)" d="M 42.596625 57.921882 
L 42.596625 57.921882 
L 42.596625 49.790118 
L 42.596625 49.790118 
z
" style="fill:#ff7f0e;"/>
   </g>
   <g id="patch_48">
    <path clip-path="url(#pa6080add69)" d="M 42.596625 47.757176 
L 42.596625 47.757176 
L 42.596625 39.625412 
L 42.596625 39.625412 
z
" style="fill:#ff7f0e;"/>
   </g>
   <g id="patch_49">
    <path clip-path="url(#pa6080add69)" d="M 42.596625 37.592471 
L 42.596625 37.592471 
L 42.596625 29.460706 
L 42.596625 29.460706 
z
" style="fill:#ff7f0e;"/>
   </g>
   <g id="patch_50">
    <path clip-path="url(#pa6080add69)" d="M 42.596625 27.427765 
L 42.596625 27.427765 
L 42.596625 19.296 
L 42.596625 19.296 
z
" style="fill:#ff7f0e;"/>
   </g>
   <g id="patch_51">
    <path clip-path="url(#pa6080add69)" d="M 42.596625 261.216 
L 42.596625 261.216 
L 42.596625 253.084235 
L 42.596625 253.084235 
z
" style="fill:#2ca02c;"/>
   </g>
   <g id="patch_52">
    <path clip-path="url(#pa6080add69)" d="M 42.596625 251.051294 
L 86.482339 251.051294 
L 86.482339 242.919529 
L 42.596625 242.919529 
z
" style="fill:#2ca02c;"/>
   </g>
   <g id="patch_53">
    <path clip-path="url(#pa6080add69)" d="M 42.596625 240.886588 
L 64.539482 240.886588 
L 64.539482 232.754824 
L 42.596625 232.754824 
z
" style="fill:#2ca02c;"/>
   </g>
   <g id="patch_54">
    <path clip-path="url(#pa6080add69)" d="M 42.596625 230.721882 
L 86.482339 230.721882 
L 86.482339 222.590118 
L 42.596625 222.590118 
z
" style="fill:#2ca02c;"/>
   </g>
   <g id="patch_55">
    <path clip-path="url(#pa6080add69)" d="M 42.596625 220.557176 
L 113.910911 220.557176 
L 113.910911 212.425412 
L 42.596625 212.425412 
z
" style="fill:#2ca02c;"/>
   </g>
   <g id="patch_56">
    <path clip-path="url(#pa6080add69)" d="M 42.596625 210.392471 
L 124.882339 210.392471 
L 124.882339 202.260706 
L 42.596625 202.260706 
z
" style="fill:#2ca02c;"/>
   </g>
   <g id="patch_57">
    <path clip-path="url(#pa6080add69)" d="M 42.596625 200.227765 
L 124.882339 200.227765 
L 124.882339 192.096 
L 42.596625 192.096 
z
" style="fill:#2ca02c;"/>
   </g>
   <g id="patch_58">
    <path clip-path="url(#pa6080add69)" d="M 42.596625 190.063059 
L 196.196625 190.063059 
L 196.196625 181.931294 
L 42.596625 181.931294 
z
" style="fill:#2ca02c;"/>
   </g>
   <g id="patch_59">
    <path clip-path="url(#pa6080add69)" d="M 42.596625 179.898353 
L 218.139482 179.898353 
L 218.139482 171.766588 
L 42.596625 171.766588 
z
" style="fill:#2ca02c;"/>
   </g>
   <g id="patch_60">
    <path clip-path="url(#pa6080add69)" d="M 42.596625 169.733647 
L 218.139482 169.733647 
L 218.139482 161.601882 
L 42.596625 161.601882 
z
" style="fill:#2ca02c;"/>
   </g>
   <g id="patch_61">
    <path clip-path="url(#pa6080add69)" d="M 42.596625 159.568941 
L 201.682339 159.568941 
L 201.682339 151.437176 
L 42.596625 151.437176 
z
" style="fill:#2ca02c;"/>
   </g>
   <g id="patch_62">
    <path clip-path="url(#pa6080add69)" d="M 42.596625 149.404235 
L 174.253768 149.404235 
L 174.253768 141.272471 
L 42.596625 141.272471 
z
" style="fill:#2ca02c;"/>
   </g>
   <g id="patch_63">
    <path clip-path="url(#pa6080add69)" d="M 42.596625 139.239529 
L 218.139482 139.239529 
L 218.139482 131.107765 
L 42.596625 131.107765 
z
" style="fill:#2ca02c;"/>
   </g>
   <g id="patch_64">
    <path clip-path="url(#pa6080add69)" d="M 42.596625 129.074824 
L 212.653768 129.074824 
L 212.653768 120.943059 
L 42.596625 120.943059 
z
" style="fill:#2ca02c;"/>
   </g>
   <g id="patch_65">
    <path clip-path="url(#pa6080add69)" d="M 42.596625 118.910118 
L 196.196625 118.910118 
L 196.196625 110.778353 
L 42.596625 110.778353 
z
" style="fill:#2ca02c;"/>
   </g>
   <g id="patch_66">
    <path clip-path="url(#pa6080add69)" d="M 42.596625 108.745412 
L 212.653768 108.745412 
L 212.653768 100.613647 
L 42.596625 100.613647 
z
" style="fill:#2ca02c;"/>
   </g>
   <g id="patch_67">
    <path clip-path="url(#pa6080add69)" d="M 42.596625 98.580706 
L 119.396625 98.580706 
L 119.396625 90.448941 
L 42.596625 90.448941 
z
" style="fill:#2ca02c;"/>
   </g>
   <g id="patch_68">
    <path clip-path="url(#pa6080add69)" d="M 42.596625 88.416 
L 75.510911 88.416 
L 75.510911 80.284235 
L 42.596625 80.284235 
z
" style="fill:#2ca02c;"/>
   </g>
   <g id="patch_69">
    <path clip-path="url(#pa6080add69)" d="M 42.596625 78.251294 
L 42.596625 78.251294 
L 42.596625 70.119529 
L 42.596625 70.119529 
z
" style="fill:#2ca02c;"/>
   </g>
   <g id="patch_70">
    <path clip-path="url(#pa6080add69)" d="M 42.596625 68.086588 
L 48.082339 68.086588 
L 48.082339 59.954824 
L 42.596625 59.954824 
z
" style="fill:#2ca02c;"/>
   </g>
   <g id="patch_71">
    <path clip-path="url(#pa6080add69)" d="M 42.596625 57.921882 
L 42.596625 57.921882 
L 42.596625 49.790118 
L 42.596625 49.790118 
z
" style="fill:#2ca02c;"/>
   </g>
   <g id="patch_72">
    <path clip-path="url(#pa6080add69)" d="M 42.596625 47.757176 
L 42.596625 47.757176 
L 42.596625 39.625412 
L 42.596625 39.625412 
z
" style="fill:#2ca02c;"/>
   </g>
   <g id="patch_73">
    <path clip-path="url(#pa6080add69)" d="M 42.596625 37.592471 
L 42.596625 37.592471 
L 42.596625 29.460706 
L 42.596625 29.460706 
z
" style="fill:#2ca02c;"/>
   </g>
   <g id="patch_74">
    <path clip-path="url(#pa6080add69)" d="M 42.596625 27.427765 
L 42.596625 27.427765 
L 42.596625 19.296 
L 42.596625 19.296 
z
" style="fill:#2ca02c;"/>
   </g>
   <g id="text_25">
    <!-- HH:MM -->
    <defs>
     <path d="M 49.796875 69.296875 
L 65.40625 69.296875 
L 65.40625 0 
L 49.796875 0 
L 49.796875 29.40625 
L 23.59375 29.40625 
L 23.59375 0 
L 8 0 
L 8 69.296875 
L 23.59375 69.296875 
L 23.59375 42.796875 
L 49.796875 42.796875 
z
" id="Ubuntu-Bold-48"/>
     <path d="M 21.59375 43.90625 
Q 21.59375 39.40625 18.75 37.046875 
Q 15.90625 34.703125 12.296875 34.703125 
Q 8.703125 34.703125 5.84375 37.046875 
Q 3 39.40625 3 43.90625 
Q 3 48.40625 5.84375 50.75 
Q 8.703125 53.09375 12.296875 53.09375 
Q 15.90625 53.09375 18.75 50.75 
Q 21.59375 48.40625 21.59375 43.90625 
M 21.59375 7.90625 
Q 21.59375 3.40625 18.75 1.046875 
Q 15.90625 -1.296875 12.296875 -1.296875 
Q 8.703125 -1.296875 5.84375 1.046875 
Q 3 3.40625 3 7.90625 
Q 3 12.40625 5.84375 14.75 
Q 8.703125 17.09375 12.296875 17.09375 
Q 15.90625 17.09375 18.75 14.75 
Q 21.59375 12.40625 21.59375 7.90625 
" id="Ubuntu-Bold-3a"/>
     <path d="M 26.40625 69.296875 
Q 28.203125 66 30.546875 61.140625 
Q 32.90625 56.296875 35.453125 50.640625 
Q 38 45 40.5 39.09375 
Q 43 33.203125 45.203125 28 
Q 47.40625 33.203125 49.90625 39.09375 
Q 52.40625 45 54.953125 50.640625 
Q 57.5 56.296875 59.84375 61.140625 
Q 62.203125 66 64 69.296875 
L 78.203125 69.296875 
Q 79.203125 62.40625 80.046875 53.84375 
Q 80.90625 45.296875 81.546875 36.046875 
Q 82.203125 26.796875 82.75 17.5 
Q 83.296875 8.203125 83.703125 0 
L 68.5 0 
Q 68.203125 10.09375 67.703125 22 
Q 67.203125 33.90625 66.203125 46 
Q 64.40625 41.796875 62.203125 36.6875 
Q 60 31.59375 57.84375 26.5 
Q 55.703125 21.40625 53.703125 16.75 
Q 51.703125 12.09375 50.296875 8.796875 
L 39.40625 8.796875 
Q 38 12.09375 36 16.75 
Q 34 21.40625 31.84375 26.5 
Q 29.703125 31.59375 27.5 36.6875 
Q 25.296875 41.796875 23.5 46 
Q 22.5 33.90625 22 22 
Q 21.5 10.09375 21.203125 0 
L 6 0 
Q 6.40625 8.203125 6.953125 17.5 
Q 7.5 26.796875 8.140625 36.046875 
Q 8.796875 45.296875 9.640625 53.84375 
Q 10.5 62.40625 11.5 69.296875 
z
" id="Ubuntu-Bold-4d"/>
    </defs>
    <g style="fill:#262626;" transform="translate(7.2 14.959375)scale(0.1 -0.1)">
     <use xlink:href="#Ubuntu-Bold-48"/>
     <use x="73.399994" xlink:href="#Ubuntu-Bold-48"/>
     <use x="146.799988" xlink:href="#Ubuntu-Bold-3a"/>
     <use x="171.399979" xlink:href="#Ubuntu-Bold-4d"/>
     <use x="261.09996" xlink:href="#Ubuntu-Bold-4d"/>
    </g>
   </g>
  </g>
  <g id="axes_2">
   <g id="matplotlib.axis_3">
    <g id="ytick_25">
     <g id="text_26">
      <!-- 0 -->
      <g style="fill:#262626;" transform="translate(403.216625 260.253868)scale(0.08 -0.08)">
       <use xlink:href="#Ubuntu-30"/>
      </g>
     </g>
    </g>
    <g id="ytick_26">
     <g id="text_27">
      <!-- 8 -->
      <g style="fill:#262626;" transform="translate(403.216625 250.089162)scale(0.08 -0.08)">
       <use xlink:href="#Ubuntu-38"/>
      </g>
     </g>
    </g>
    <g id="ytick_27">
     <g id="text_28">
      <!-- 4 -->
      <g style="fill:#262626;" transform="translate(403.216625 239.924456)scale(0.08 -0.08)">
       <use xlink:href="#Ubuntu-34"/>
      </g>
     </g>
    </g>
    <g id="ytick_28">
     <g id="text_29">
      <!-- 8 -->
      <g style="fill:#262626;" transform="translate(403.216625 229.75975)scale(0.08 -0.08)">
       <use xlink:href="#Ubuntu-38"/>
      </g>
     </g>
    </g>
    <g id="ytick_29">
     <g id="text_30">
      <!-- 13 -->
      <g style="fill:#262626;" transform="translate(403.216625 219.595044)scale(0.08 -0.08)">
       <use xlink:href="#Ubuntu-31"/>
       <use x="56.399994" xlink:href="#Ubuntu-33"/>
      </g>
     </g>
    </g>
    <g id="ytick_30">
     <g id="text_31">
      <!-- 15 -->
      <g style="fill:#262626;" transform="translate(403.216625 209.430338)scale(0.08 -0.08)">
       <use xlink:href="#Ubuntu-31"/>
       <use x="56.399994" xlink:href="#Ubuntu-35"/>
      </g>
     </g>
    </g>
    <g id="ytick_31">
     <g id="text_32">
      <!-- 15 -->
      <g style="fill:#262626;" transform="translate(403.216625 199.265632)scale(0.08 -0.08)">
       <use xlink:href="#Ubuntu-31"/>
       <use x="56.399994" xlink:href="#Ubuntu-35"/>
      </g>
     </g>
    </g>
    <g id="ytick_32">
     <g id="text_33">
      <!-- 28 -->
      <g style="fill:#262626;" transform="translate(403.216625 189.100926)scale(0.08 -0.08)">
       <use xlink:href="#Ubuntu-32"/>
       <use x="56.399994" xlink:href="#Ubuntu-38"/>
      </g>
     </g>
    </g>
    <g id="ytick_33">
     <g id="text_34">
      <!-- 34 -->
      <g style="fill:#262626;" transform="translate(403.216625 178.936221)scale(0.08 -0.08)">
       <use xlink:href="#Ubuntu-33"/>
       <use x="56.399994" xlink:href="#Ubuntu-34"/>
      </g>
     </g>
    </g>
    <g id="ytick_34">
     <g id="text_35">
      <!-- 36 -->
      <g style="fill:#262626;" transform="translate(403.216625 168.771515)scale(0.08 -0.08)">
       <use xlink:href="#Ubuntu-33"/>
       <use x="56.399994" xlink:href="#Ubuntu-36"/>
      </g>
     </g>
    </g>
    <g id="ytick_35">
     <g id="text_36">
      <!-- 29 -->
      <g style="fill:#262626;" transform="translate(403.216625 158.606809)scale(0.08 -0.08)">
       <use xlink:href="#Ubuntu-32"/>
       <use x="56.399994" xlink:href="#Ubuntu-39"/>
      </g>
     </g>
    </g>
    <g id="ytick_36">
     <g id="text_37">
      <!-- 24 -->
      <g style="fill:#262626;" transform="translate(403.216625 148.442103)scale(0.08 -0.08)">
       <use xlink:href="#Ubuntu-32"/>
       <use x="56.399994" xlink:href="#Ubuntu-34"/>
      </g>
     </g>
    </g>
    <g id="ytick_37">
     <g id="text_38">
      <!-- 62 -->
      <g style="fill:#262626;" transform="translate(403.216625 138.277397)scale(0.08 -0.08)">
       <use xlink:href="#Ubuntu-36"/>
       <use x="56.399994" xlink:href="#Ubuntu-32"/>
      </g>
     </g>
    </g>
    <g id="ytick_38">
     <g id="text_39">
      <!-- 31 -->
      <g style="fill:#262626;" transform="translate(403.216625 128.112691)scale(0.08 -0.08)">
       <use xlink:href="#Ubuntu-33"/>
       <use x="56.399994" xlink:href="#Ubuntu-31"/>
      </g>
     </g>
    </g>
    <g id="ytick_39">
     <g id="text_40">
      <!-- 28 -->
      <g style="fill:#262626;" transform="translate(403.216625 117.947985)scale(0.08 -0.08)">
       <use xlink:href="#Ubuntu-32"/>
       <use x="56.399994" xlink:href="#Ubuntu-38"/>
      </g>
     </g>
    </g>
    <g id="ytick_40">
     <g id="text_41">
      <!-- 31 -->
      <g style="fill:#262626;" transform="translate(403.216625 107.783279)scale(0.08 -0.08)">
       <use xlink:href="#Ubuntu-33"/>
       <use x="56.399994" xlink:href="#Ubuntu-31"/>
      </g>
     </g>
    </g>
    <g id="ytick_41">
     <g id="text_42">
      <!-- 14 -->
      <g style="fill:#262626;" transform="translate(403.216625 97.618574)scale(0.08 -0.08)">
       <use xlink:href="#Ubuntu-31"/>
       <use x="56.399994" xlink:href="#Ubuntu-34"/>
      </g>
     </g>
    </g>
    <g id="ytick_42">
     <g id="text_43">
      <!-- 6 -->
      <g style="fill:#262626;" transform="translate(403.216625 87.453868)scale(0.08 -0.08)">
       <use xlink:href="#Ubuntu-36"/>
      </g>
     </g>
    </g>
    <g id="ytick_43">
     <g id="text_44">
      <!-- 0 -->
      <g style="fill:#262626;" transform="translate(403.216625 77.289162)scale(0.08 -0.08)">
       <use xlink:href="#Ubuntu-30"/>
      </g>
     </g>
    </g>
    <g id="ytick_44">
     <g id="text_45">
      <!-- 1 -->
      <g style="fill:#262626;" transform="translate(403.216625 67.124456)scale(0.08 -0.08)">
       <use xlink:href="#Ubuntu-31"/>
      </g>
     </g>
    </g>
    <g id="ytick_45">
     <g id="text_46">
      <!-- 0 -->
      <g style="fill:#262626;" transform="translate(403.216625 56.95975)scale(0.08 -0.08)">
       <use xlink:href="#Ubuntu-30"/>
      </g>
     </g>
    </g>
    <g id="ytick_46">
     <g id="text_47">
      <!-- 0 -->
      <g style="fill:#262626;" transform="translate(403.216625 46.795044)scale(0.08 -0.08)">
       <use xlink:href="#Ubuntu-30"/>
      </g>
     </g>
    </g>
    <g id="ytick_47">
     <g id="text_48">
      <!-- 0 -->
      <g style="fill:#262626;" transform="translate(403.216625 36.630338)scale(0.08 -0.08)">
       <use xlink:href="#Ubuntu-30"/>
      </g>
     </g>
    </g>
    <g id="ytick_48">
     <g id="text_49">
      <!-- 0 -->
      <g style="fill:#262626;" transform="translate(403.216625 26.465632)scale(0.08 -0.08)">
       <use xlink:href="#Ubuntu-30"/>
      </g>
     </g>
    </g>
   </g>
   <g id="text_50">
    <!-- # Tweets -->
    <defs>
     <path d="M 32.5 52.296875 
L 44.09375 52.296875 
L 47.40625 69.296875 
L 60.40625 69.296875 
L 57.09375 52.296875 
L 64.40625 52.296875 
L 64.40625 40.796875 
L 54.90625 40.796875 
L 52.5 28.5 
L 64.40625 28.5 
L 64.40625 17 
L 50.296875 17 
L 47.09375 0 
L 34.09375 0 
L 37.296875 17 
L 25.703125 17 
L 22.5 0 
L 9.5 0 
L 12.703125 17 
L 5.5 17 
L 5.5 28.5 
L 14.90625 28.5 
L 17.296875 40.796875 
L 5.5 40.796875 
L 5.5 52.296875 
L 19.5 52.296875 
L 22.796875 69.296875 
L 35.796875 69.296875 
z
M 27.90625 28.5 
L 39.5 28.5 
L 41.90625 40.796875 
L 30.296875 40.796875 
z
" id="Ubuntu-Bold-23"/>
     <path id="Ubuntu-Bold-20"/>
     <path d="M 59.40625 69.296875 
L 59.40625 56 
L 38.5 56 
L 38.5 0 
L 22.90625 0 
L 22.90625 56 
L 2 56 
L 2 69.296875 
z
" id="Ubuntu-Bold-54"/>
     <path d="M 39 30.203125 
Q 37 22.59375 34.75 15.09375 
Q 32.5 7.59375 30 0 
L 18.40625 0 
Q 16.59375 4.203125 14.5 10 
Q 12.40625 15.796875 10.15625 22.640625 
Q 7.90625 29.5 5.546875 37.140625 
Q 3.203125 44.796875 1 52.59375 
L 16.703125 52.59375 
Q 17.5 49 18.453125 44.75 
Q 19.40625 40.5 20.453125 36 
Q 21.5 31.5 22.640625 26.953125 
Q 23.796875 22.40625 25 18.203125 
Q 26.296875 22.59375 27.546875 27.1875 
Q 28.796875 31.796875 29.9375 36.25 
Q 31.09375 40.703125 32.140625 44.84375 
Q 33.203125 49 34 52.59375 
L 44.796875 52.59375 
Q 45.59375 49 46.59375 44.84375 
Q 47.59375 40.703125 48.6875 36.25 
Q 49.796875 31.796875 51 27.1875 
Q 52.203125 22.59375 53.5 18.203125 
Q 54.703125 22.40625 55.890625 26.953125 
Q 57.09375 31.5 58.140625 36 
Q 59.203125 40.5 60.140625 44.75 
Q 61.09375 49 61.90625 52.59375 
L 77.40625 52.59375 
Q 75.203125 44.796875 72.84375 37.140625 
Q 70.5 29.5 68.25 22.640625 
Q 66 15.796875 63.84375 10 
Q 61.703125 4.203125 59.90625 0 
L 48.296875 0 
Q 45.796875 7.59375 43.390625 15.09375 
Q 41 22.59375 39 30.203125 
" id="Ubuntu-Bold-77"/>
     <path d="M 4.5 25.90625 
Q 4.5 32.90625 6.640625 38.15625 
Q 8.796875 43.40625 12.296875 46.90625 
Q 15.796875 50.40625 20.34375 52.203125 
Q 24.90625 54 29.703125 54 
Q 40.90625 54 47.40625 47.140625 
Q 53.90625 40.296875 53.90625 27 
Q 53.90625 25.703125 53.796875 24.140625 
Q 53.703125 22.59375 53.59375 21.40625 
L 19.796875 21.40625 
Q 20.296875 16.796875 24.09375 14.09375 
Q 27.90625 11.40625 34.296875 11.40625 
Q 38.40625 11.40625 42.34375 12.15625 
Q 46.296875 12.90625 48.796875 14 
L 50.796875 1.90625 
Q 49.59375 1.296875 47.59375 0.6875 
Q 45.59375 0.09375 43.140625 -0.34375 
Q 40.703125 -0.796875 37.890625 -1.09375 
Q 35.09375 -1.40625 32.296875 -1.40625 
Q 25.203125 -1.40625 19.953125 0.6875 
Q 14.703125 2.796875 11.25 6.4375 
Q 7.796875 10.09375 6.140625 15.09375 
Q 4.5 20.09375 4.5 25.90625 
M 39.5 31.59375 
Q 39.40625 33.5 38.84375 35.296875 
Q 38.296875 37.09375 37.140625 38.5 
Q 36 39.90625 34.25 40.796875 
Q 32.5 41.703125 29.90625 41.703125 
Q 27.40625 41.703125 25.59375 40.84375 
Q 23.796875 40 22.59375 38.59375 
Q 21.40625 37.203125 20.75 35.34375 
Q 20.09375 33.5 19.796875 31.59375 
z
" id="Ubuntu-Bold-65"/>
     <path d="M 6.5 65.703125 
L 21.40625 68.09375 
L 21.40625 52.59375 
L 39.296875 52.59375 
L 39.296875 40.203125 
L 21.40625 40.203125 
L 21.40625 21.703125 
Q 21.40625 17 23.046875 14.203125 
Q 24.703125 11.40625 29.703125 11.40625 
Q 32.09375 11.40625 34.640625 11.84375 
Q 37.203125 12.296875 39.296875 13.09375 
L 41.40625 1.5 
Q 38.703125 0.40625 35.390625 -0.390625 
Q 32.09375 -1.203125 27.296875 -1.203125 
Q 21.203125 -1.203125 17.203125 0.4375 
Q 13.203125 2.09375 10.796875 5.046875 
Q 8.40625 8 7.453125 12.203125 
Q 6.5 16.40625 6.5 21.5 
z
" id="Ubuntu-Bold-74"/>
     <path d="M 22.09375 10.703125 
Q 26.203125 10.703125 27.890625 11.5 
Q 29.59375 12.296875 29.59375 14.59375 
Q 29.59375 16.40625 27.390625 17.75 
Q 25.203125 19.09375 20.703125 20.796875 
Q 17.203125 22.09375 14.34375 23.5 
Q 11.5 24.90625 9.5 26.84375 
Q 7.5 28.796875 6.390625 31.5 
Q 5.296875 34.203125 5.296875 38 
Q 5.296875 45.40625 10.796875 49.703125 
Q 16.296875 54 25.90625 54 
Q 30.703125 54 35.09375 53.140625 
Q 39.5 52.296875 42.09375 51.296875 
L 39.5 39.703125 
Q 36.90625 40.59375 33.84375 41.296875 
Q 30.796875 42 27 42 
Q 20 42 20 38.09375 
Q 20 37.203125 20.296875 36.5 
Q 20.59375 35.796875 21.5 35.140625 
Q 22.40625 34.5 23.953125 33.75 
Q 25.5 33 27.90625 32.09375 
Q 32.796875 30.296875 36 28.546875 
Q 39.203125 26.796875 41.046875 24.75 
Q 42.90625 22.703125 43.65625 20.203125 
Q 44.40625 17.703125 44.40625 14.40625 
Q 44.40625 6.59375 38.546875 2.59375 
Q 32.703125 -1.40625 22 -1.40625 
Q 15 -1.40625 10.34375 -0.203125 
Q 5.703125 1 3.90625 1.796875 
L 6.40625 13.90625 
Q 10.203125 12.40625 14.203125 11.546875 
Q 18.203125 10.703125 22.09375 10.703125 
" id="Ubuntu-Bold-73"/>
    </defs>
    <g style="fill:#262626;" transform="translate(381.860625 14.959375)scale(0.1 -0.1)">
     <use xlink:href="#Ubuntu-Bold-23"/>
     <use x="69.899994" xlink:href="#Ubuntu-Bold-20"/>
     <use x="93.899979" xlink:href="#Ubuntu-Bold-54"/>
     <use x="155.190598" xlink:href="#Ubuntu-Bold-77"/>
     <use x="233.574966" xlink:href="#Ubuntu-Bold-65"/>
     <use x="291.97496" xlink:href="#Ubuntu-Bold-65"/>
     <use x="350.374954" xlink:href="#Ubuntu-Bold-74"/>
     <use x="394.774948" xlink:href="#Ubuntu-Bold-73"/>
    </g>
   </g>
  </g>
 </g>
 <defs>
  <clipPath id="pa6080add69">
   <rect height="266.112" width="357.12" x="42.596625" y="7.2"/>
  </clipPath>
 </defs>
</svg>
