<?xml version="1.0" encoding="utf-8" standalone="no"?>
<!DOCTYPE svg PUBLIC "-//W3C//DTD SVG 1.1//EN"
  "http://www.w3.org/Graphics/SVG/1.1/DTD/svg11.dtd">
<!-- Created with matplotlib (http://matplotlib.org/) -->
<svg height="597pt" version="1.1" viewBox="0 0 1012 597" width="1012pt" xmlns="http://www.w3.org/2000/svg" xmlns:xlink="http://www.w3.org/1999/xlink">
 <defs>
  <style type="text/css">
*{stroke-linecap:butt;stroke-linejoin:round;}
  </style>
 </defs>
 <g id="figure_1">
  <g id="patch_1">
   <path d="M 0 597.113437 
L 1012.4125 597.113437 
L 1012.4125 0 
L 0 0 
z
" style="fill:#ffffff;"/>
  </g>
  <g id="axes_1">
   <g id="patch_2">
    <path d="M 122.88875 589.913437 
L 959.88875 589.913437 
L 959.88875 35.513437 
L 122.88875 35.513437 
z
" style="fill:#ffffff;"/>
   </g>
   <g id="matplotlib.axis_1">
    <g id="xtick_1"/>
    <g id="xtick_2"/>
    <g id="xtick_3"/>
    <g id="xtick_4"/>
    <g id="xtick_5"/>
    <g id="xtick_6"/>
   </g>
   <g id="matplotlib.axis_2">
    <g id="ytick_1">
     <g id="text_1">
      <!-- Facebook -->
      <defs>
       <path d="M 8.59375 0 
L 8.59375 69.296875 
L 50.40625 69.296875 
L 50.40625 61 
L 18.296875 61 
L 18.296875 40.09375 
L 46.796875 40.09375 
L 46.796875 31.90625 
L 18.296875 31.90625 
L 18.296875 0 
z
" id="Ubuntu-46"/>
       <path d="M 25.59375 6.703125 
Q 28.90625 6.703125 31.453125 6.84375 
Q 34 7 35.703125 7.40625 
L 35.703125 22.90625 
Q 34.703125 23.40625 32.453125 23.75 
Q 30.203125 24.09375 27 24.09375 
Q 24.90625 24.09375 22.546875 23.796875 
Q 20.203125 23.5 18.25 22.546875 
Q 16.296875 21.59375 15 19.9375 
Q 13.703125 18.296875 13.703125 15.59375 
Q 13.703125 10.59375 16.890625 8.640625 
Q 20.09375 6.703125 25.59375 6.703125 
M 24.796875 53.296875 
Q 30.40625 53.296875 34.25 51.84375 
Q 38.09375 50.40625 40.4375 47.75 
Q 42.796875 45.09375 43.796875 41.4375 
Q 44.796875 37.796875 44.796875 33.40625 
L 44.796875 0.90625 
Q 43.59375 0.703125 41.4375 0.34375 
Q 39.296875 0 36.59375 -0.296875 
Q 33.90625 -0.59375 30.75 -0.84375 
Q 27.59375 -1.09375 24.5 -1.09375 
Q 20.09375 -1.09375 16.390625 -0.1875 
Q 12.703125 0.703125 10 2.640625 
Q 7.296875 4.59375 5.796875 7.796875 
Q 4.296875 11 4.296875 15.5 
Q 4.296875 19.796875 6.046875 22.890625 
Q 7.796875 26 10.796875 27.890625 
Q 13.796875 29.796875 17.796875 30.6875 
Q 21.796875 31.59375 26.203125 31.59375 
Q 27.59375 31.59375 29.09375 31.4375 
Q 30.59375 31.296875 31.9375 31.046875 
Q 33.296875 30.796875 34.296875 30.59375 
Q 35.296875 30.40625 35.703125 30.296875 
L 35.703125 32.90625 
Q 35.703125 35.203125 35.203125 37.453125 
Q 34.703125 39.703125 33.390625 41.453125 
Q 32.09375 43.203125 29.84375 44.25 
Q 27.59375 45.296875 24 45.296875 
Q 19.40625 45.296875 15.953125 44.640625 
Q 12.5 44 10.796875 43.296875 
L 9.703125 51 
Q 11.5 51.796875 15.703125 52.546875 
Q 19.90625 53.296875 24.796875 53.296875 
" id="Ubuntu-61"/>
       <path d="M 30.59375 -1.203125 
Q 24.296875 -1.203125 19.546875 0.796875 
Q 14.796875 2.796875 11.546875 6.390625 
Q 8.296875 10 6.6875 14.953125 
Q 5.09375 19.90625 5.09375 25.90625 
Q 5.09375 31.90625 6.84375 36.90625 
Q 8.59375 41.90625 11.796875 45.546875 
Q 15 49.203125 19.640625 51.25 
Q 24.296875 53.296875 30 53.296875 
Q 33.5 53.296875 37 52.6875 
Q 40.5 52.09375 43.703125 50.796875 
L 41.59375 42.90625 
Q 39.5 43.90625 36.75 44.5 
Q 34 45.09375 30.90625 45.09375 
Q 23.09375 45.09375 18.9375 40.1875 
Q 14.796875 35.296875 14.796875 25.90625 
Q 14.796875 21.703125 15.75 18.203125 
Q 16.703125 14.703125 18.75 12.203125 
Q 20.796875 9.703125 24 8.34375 
Q 27.203125 7 31.796875 7 
Q 35.5 7 38.5 7.703125 
Q 41.5 8.40625 43.203125 9.203125 
L 44.5 1.40625 
Q 43.703125 0.90625 42.203125 0.453125 
Q 40.703125 0 38.796875 -0.34375 
Q 36.90625 -0.703125 34.75 -0.953125 
Q 32.59375 -1.203125 30.59375 -1.203125 
" id="Ubuntu-63"/>
       <path d="M 5.09375 25.90625 
Q 5.09375 32.796875 7.09375 37.9375 
Q 9.09375 43.09375 12.390625 46.5 
Q 15.703125 49.90625 20 51.59375 
Q 24.296875 53.296875 28.796875 53.296875 
Q 39.296875 53.296875 44.890625 46.75 
Q 50.5 40.203125 50.5 26.796875 
Q 50.5 26.203125 50.5 25.25 
Q 50.5 24.296875 50.40625 23.5 
L 14.796875 23.5 
Q 15.40625 15.40625 19.5 11.203125 
Q 23.59375 7 32.296875 7 
Q 37.203125 7 40.546875 7.84375 
Q 43.90625 8.703125 45.59375 9.5 
L 46.90625 1.703125 
Q 45.203125 0.796875 40.953125 -0.203125 
Q 36.703125 -1.203125 31.296875 -1.203125 
Q 24.5 -1.203125 19.546875 0.84375 
Q 14.59375 2.90625 11.390625 6.5 
Q 8.203125 10.09375 6.640625 15.046875 
Q 5.09375 20 5.09375 25.90625 
M 40.796875 31 
Q 40.90625 37.296875 37.65625 41.34375 
Q 34.40625 45.40625 28.703125 45.40625 
Q 25.5 45.40625 23.046875 44.15625 
Q 20.59375 42.90625 18.890625 40.90625 
Q 17.203125 38.90625 16.25 36.296875 
Q 15.296875 33.703125 15 31 
z
" id="Ubuntu-65"/>
       <path d="M 17.296875 49.703125 
Q 19 50.796875 22.453125 52 
Q 25.90625 53.203125 30.40625 53.203125 
Q 36 53.203125 40.34375 51.203125 
Q 44.703125 49.203125 47.703125 45.59375 
Q 50.703125 42 52.25 37 
Q 53.796875 32 53.796875 26 
Q 53.796875 19.703125 51.9375 14.640625 
Q 50.09375 9.59375 46.6875 6.09375 
Q 43.296875 2.59375 38.5 0.6875 
Q 33.703125 -1.203125 27.703125 -1.203125 
Q 21.203125 -1.203125 16.203125 -0.296875 
Q 11.203125 0.59375 8 1.5 
L 8 76 
L 17.296875 77.59375 
z
M 17.296875 8.09375 
Q 18.703125 7.703125 21.25 7.34375 
Q 23.796875 7 27.59375 7 
Q 35.09375 7 39.59375 11.953125 
Q 44.09375 16.90625 44.09375 26 
Q 44.09375 30 43.296875 33.5 
Q 42.5 37 40.703125 39.546875 
Q 38.90625 42.09375 36.046875 43.546875 
Q 33.203125 45 29.203125 45 
Q 25.40625 45 22.203125 43.703125 
Q 19 42.40625 17.296875 41 
z
" id="Ubuntu-62"/>
       <path d="M 53.90625 26 
Q 53.90625 19.796875 52.09375 14.796875 
Q 50.296875 9.796875 47.046875 6.1875 
Q 43.796875 2.59375 39.296875 0.640625 
Q 34.796875 -1.296875 29.5 -1.296875 
Q 24.203125 -1.296875 19.703125 0.640625 
Q 15.203125 2.59375 11.953125 6.1875 
Q 8.703125 9.796875 6.890625 14.796875 
Q 5.09375 19.796875 5.09375 26 
Q 5.09375 32.09375 6.890625 37.140625 
Q 8.703125 42.203125 11.953125 45.796875 
Q 15.203125 49.40625 19.703125 51.34375 
Q 24.203125 53.296875 29.5 53.296875 
Q 34.796875 53.296875 39.296875 51.34375 
Q 43.796875 49.40625 47.046875 45.796875 
Q 50.296875 42.203125 52.09375 37.140625 
Q 53.90625 32.09375 53.90625 26 
M 44.203125 26 
Q 44.203125 34.796875 40.25 39.9375 
Q 36.296875 45.09375 29.5 45.09375 
Q 22.703125 45.09375 18.75 39.9375 
Q 14.796875 34.796875 14.796875 26 
Q 14.796875 17.203125 18.75 12.046875 
Q 22.703125 6.90625 29.5 6.90625 
Q 36.296875 6.90625 40.25 12.046875 
Q 44.203125 17.203125 44.203125 26 
" id="Ubuntu-6f"/>
       <path d="M 26.796875 28.59375 
Q 29.796875 26.296875 33.140625 22.890625 
Q 36.5 19.5 39.75 15.546875 
Q 43 11.59375 45.890625 7.546875 
Q 48.796875 3.5 50.796875 0 
L 39.90625 0 
Q 37.796875 3.5 35.046875 7.140625 
Q 32.296875 10.796875 29.296875 14.140625 
Q 26.296875 17.5 23.1875 20.296875 
Q 20.09375 23.09375 17.296875 25 
L 17.296875 0 
L 8 0 
L 8 76 
L 17.296875 77.59375 
L 17.296875 30.203125 
Q 19.703125 32.59375 22.59375 35.5 
Q 25.5 38.40625 28.296875 41.40625 
Q 31.09375 44.40625 33.59375 47.15625 
Q 36.09375 49.90625 37.90625 52 
L 48.796875 52 
Q 46.5 49.5 43.796875 46.5 
Q 41.09375 43.5 38.1875 40.453125 
Q 35.296875 37.40625 32.34375 34.34375 
Q 29.40625 31.296875 26.796875 28.59375 
" id="Ubuntu-6b"/>
      </defs>
      <g style="fill:#262626;" transform="translate(66.9075 564.378963)scale(0.12 -0.12)">
       <use xlink:href="#Ubuntu-46"/>
       <use x="53.621872" xlink:href="#Ubuntu-61"/>
       <use x="105.821869" xlink:href="#Ubuntu-63"/>
       <use x="152.321854" xlink:href="#Ubuntu-65"/>
       <use x="208.221848" xlink:href="#Ubuntu-62"/>
       <use x="267.121841" xlink:href="#Ubuntu-6f"/>
       <use x="326.121826" xlink:href="#Ubuntu-6f"/>
       <use x="385.121811" xlink:href="#Ubuntu-6b"/>
      </g>
     </g>
    </g>
    <g id="ytick_2">
     <g id="text_2">
      <!-- Twitter for Websites -->
      <defs>
       <path d="M 54.90625 69.296875 
L 54.90625 60.90625 
L 33.09375 60.90625 
L 33.09375 0 
L 23.40625 0 
L 23.40625 60.90625 
L 1.59375 60.90625 
L 1.59375 69.296875 
z
" id="Ubuntu-54"/>
       <path d="M 50.5 0 
Q 47.703125 7.203125 44.546875 16.453125 
Q 41.40625 25.703125 38.796875 35.703125 
Q 36.203125 25.703125 33.09375 16.453125 
Q 30 7.203125 27.203125 0 
L 19.09375 0 
Q 14.5 10.296875 10.09375 23.5 
Q 5.703125 36.703125 1.796875 52 
L 11.796875 52 
Q 12.796875 47.296875 14.1875 41.796875 
Q 15.59375 36.296875 17.140625 30.796875 
Q 18.703125 25.296875 20.390625 20.1875 
Q 22.09375 15.09375 23.59375 11.296875 
Q 25.296875 16 26.9375 21.25 
Q 28.59375 26.5 30.09375 31.84375 
Q 31.59375 37.203125 32.9375 42.34375 
Q 34.296875 47.5 35.296875 52 
L 43 52 
Q 43.90625 47.5 45.203125 42.34375 
Q 46.5 37.203125 48 31.84375 
Q 49.5 26.5 51.140625 21.25 
Q 52.796875 16 54.5 11.296875 
Q 56 15.09375 57.640625 20.1875 
Q 59.296875 25.296875 60.890625 30.796875 
Q 62.5 36.296875 63.890625 41.796875 
Q 65.296875 47.296875 66.296875 52 
L 75.90625 52 
Q 72 36.703125 67.59375 23.5 
Q 63.203125 10.296875 58.59375 0 
z
" id="Ubuntu-77"/>
       <path d="M 17.296875 0 
L 8 0 
L 8 52 
L 17.296875 52 
z
M 12.59375 61.40625 
Q 10.09375 61.40625 8.34375 63.046875 
Q 6.59375 64.703125 6.59375 67.5 
Q 6.59375 70.296875 8.34375 71.9375 
Q 10.09375 73.59375 12.59375 73.59375 
Q 15.09375 73.59375 16.84375 71.9375 
Q 18.59375 70.296875 18.59375 67.5 
Q 18.59375 64.703125 16.84375 63.046875 
Q 15.09375 61.40625 12.59375 61.40625 
" id="Ubuntu-69"/>
       <path d="M 16.703125 52 
L 36.40625 52 
L 36.40625 44.203125 
L 16.703125 44.203125 
L 16.703125 20.203125 
Q 16.703125 16.296875 17.296875 13.75 
Q 17.90625 11.203125 19.09375 9.75 
Q 20.296875 8.296875 22.09375 7.6875 
Q 23.90625 7.09375 26.296875 7.09375 
Q 30.5 7.09375 33.046875 8.046875 
Q 35.59375 9 36.59375 9.40625 
L 38.40625 1.703125 
Q 37 1 33.5 -0.046875 
Q 30 -1.09375 25.5 -1.09375 
Q 20.203125 -1.09375 16.75 0.25 
Q 13.296875 1.59375 11.1875 4.296875 
Q 9.09375 7 8.25 10.953125 
Q 7.40625 14.90625 7.40625 20.09375 
L 7.40625 66.5 
L 16.703125 68.09375 
z
" id="Ubuntu-74"/>
       <path d="M 27.203125 53.09375 
Q 28.40625 53.09375 29.953125 52.9375 
Q 31.5 52.796875 33 52.546875 
Q 34.5 52.296875 35.75 52.046875 
Q 37 51.796875 37.59375 51.59375 
L 36 43.5 
Q 34.90625 43.90625 32.34375 44.453125 
Q 29.796875 45 25.796875 45 
Q 23.203125 45 20.640625 44.453125 
Q 18.09375 43.90625 17.296875 43.703125 
L 17.296875 0 
L 8 0 
L 8 49.796875 
Q 11.296875 51 16.1875 52.046875 
Q 21.09375 53.09375 27.203125 53.09375 
" id="Ubuntu-72"/>
       <path id="Ubuntu-20"/>
       <path d="M 28.296875 77.59375 
Q 32.40625 77.59375 35.34375 77 
Q 38.296875 76.40625 39.5 75.90625 
L 37.796875 67.90625 
Q 36.59375 68.5 34.390625 69.046875 
Q 32.203125 69.59375 29 69.59375 
Q 22.5 69.59375 19.890625 66.046875 
Q 17.296875 62.5 17.296875 56.5 
L 17.296875 52 
L 37.296875 52 
L 37.296875 44.203125 
L 17.296875 44.203125 
L 17.296875 0 
L 8 0 
L 8 56.703125 
Q 8 66.703125 12.890625 72.140625 
Q 17.796875 77.59375 28.296875 77.59375 
" id="Ubuntu-66"/>
       <path d="M 46.5 47 
Q 42.296875 33.59375 38 22.1875 
Q 33.703125 10.796875 29.40625 0 
L 19.703125 0 
Q 14.40625 15.296875 10.34375 32.296875 
Q 6.296875 49.296875 2.796875 69.296875 
L 13 69.296875 
Q 14.40625 61.5 15.90625 53.703125 
Q 17.40625 45.90625 19 38.546875 
Q 20.59375 31.203125 22.1875 24.5 
Q 23.796875 17.796875 25.5 12.09375 
Q 29.5 22.59375 34 35.140625 
Q 38.5 47.703125 42.40625 61.09375 
L 50.796875 61.09375 
Q 54.703125 47.703125 59.296875 35.140625 
Q 63.90625 22.59375 67.90625 12.09375 
Q 69.5 17.703125 71.09375 24.390625 
Q 72.703125 31.09375 74.25 38.4375 
Q 75.796875 45.796875 77.296875 53.640625 
Q 78.796875 61.5 80.203125 69.296875 
L 90.09375 69.296875 
Q 86.5 49.296875 82.453125 32.296875 
Q 78.40625 15.296875 73.203125 0 
L 63.5 0 
Q 59.09375 10.796875 54.890625 22.1875 
Q 50.703125 33.59375 46.5 47 
" id="Ubuntu-57"/>
       <path d="M 20.09375 6.703125 
Q 25.796875 6.703125 28.546875 8.203125 
Q 31.296875 9.703125 31.296875 13 
Q 31.296875 16.40625 28.59375 18.40625 
Q 25.90625 20.40625 19.703125 22.90625 
Q 16.703125 24.09375 13.953125 25.34375 
Q 11.203125 26.59375 9.203125 28.296875 
Q 7.203125 30 6 32.390625 
Q 4.796875 34.796875 4.796875 38.296875 
Q 4.796875 45.203125 9.890625 49.25 
Q 15 53.296875 23.796875 53.296875 
Q 26 53.296875 28.203125 53.046875 
Q 30.40625 52.796875 32.296875 52.4375 
Q 34.203125 52.09375 35.640625 51.6875 
Q 37.09375 51.296875 37.90625 51 
L 36.203125 43 
Q 34.703125 43.796875 31.5 44.640625 
Q 28.296875 45.5 23.796875 45.5 
Q 19.90625 45.5 17 43.953125 
Q 14.09375 42.40625 14.09375 39.09375 
Q 14.09375 37.40625 14.75 36.09375 
Q 15.40625 34.796875 16.75 33.75 
Q 18.09375 32.703125 20.09375 31.796875 
Q 22.09375 30.90625 24.90625 29.90625 
Q 28.59375 28.5 31.5 27.140625 
Q 34.40625 25.796875 36.453125 24 
Q 38.5 22.203125 39.59375 19.640625 
Q 40.703125 17.09375 40.703125 13.40625 
Q 40.703125 6.203125 35.34375 2.5 
Q 30 -1.203125 20.09375 -1.203125 
Q 13.203125 -1.203125 9.296875 -0.046875 
Q 5.40625 1.09375 4 1.703125 
L 5.703125 9.703125 
Q 7.296875 9.09375 10.796875 7.890625 
Q 14.296875 6.703125 20.09375 6.703125 
" id="Ubuntu-73"/>
      </defs>
      <g style="fill:#262626;" transform="translate(7.2 509.487874)scale(0.12 -0.12)">
       <use xlink:href="#Ubuntu-54"/>
       <use x="56.374985" xlink:href="#Ubuntu-77"/>
       <use x="134.074966" xlink:href="#Ubuntu-69"/>
       <use x="159.374954" xlink:href="#Ubuntu-74"/>
       <use x="199.574951" xlink:href="#Ubuntu-74"/>
       <use x="239.759323" xlink:href="#Ubuntu-65"/>
       <use x="295.659317" xlink:href="#Ubuntu-72"/>
       <use x="334.259308" xlink:href="#Ubuntu-20"/>
       <use x="357.359299" xlink:href="#Ubuntu-66"/>
       <use x="395.95929" xlink:href="#Ubuntu-6f"/>
       <use x="454.959274" xlink:href="#Ubuntu-72"/>
       <use x="493.559265" xlink:href="#Ubuntu-20"/>
       <use x="516.659256" xlink:href="#Ubuntu-57"/>
       <use x="609.528" xlink:href="#Ubuntu-65"/>
       <use x="665.427994" xlink:href="#Ubuntu-62"/>
       <use x="724.327988" xlink:href="#Ubuntu-73"/>
       <use x="768.927979" xlink:href="#Ubuntu-69"/>
       <use x="794.227966" xlink:href="#Ubuntu-74"/>
       <use x="834.412338" xlink:href="#Ubuntu-65"/>
       <use x="890.312332" xlink:href="#Ubuntu-73"/>
      </g>
     </g>
    </g>
    <g id="ytick_3">
     <g id="text_3">
      <!-- Mobile Web -->
      <defs>
       <path d="M 39.703125 9.59375 
Q 38.703125 12 37.046875 15.703125 
Q 35.40625 19.40625 33.5 23.703125 
Q 31.59375 28 29.4375 32.546875 
Q 27.296875 37.09375 25.390625 41.140625 
Q 23.5 45.203125 21.84375 48.390625 
Q 20.203125 51.59375 19.203125 53.296875 
Q 18.09375 41.5 17.390625 27.75 
Q 16.703125 14 16.203125 0 
L 6.703125 0 
Q 7.09375 9 7.59375 18.140625 
Q 8.09375 27.296875 8.75 36.140625 
Q 9.40625 45 10.15625 53.390625 
Q 10.90625 61.796875 11.796875 69.296875 
L 20.296875 69.296875 
Q 23 64.90625 26.09375 58.90625 
Q 29.203125 52.90625 32.296875 46.34375 
Q 35.40625 39.796875 38.296875 33.25 
Q 41.203125 26.703125 43.59375 21.296875 
Q 46 26.703125 48.890625 33.25 
Q 51.796875 39.796875 54.890625 46.34375 
Q 58 52.90625 61.09375 58.90625 
Q 64.203125 64.90625 66.90625 69.296875 
L 75.40625 69.296875 
Q 78.796875 35.796875 80.5 0 
L 71 0 
Q 70.5 14 69.796875 27.75 
Q 69.09375 41.5 68 53.296875 
Q 67 51.59375 65.34375 48.390625 
Q 63.703125 45.203125 61.796875 41.140625 
Q 59.90625 37.09375 57.75 32.546875 
Q 55.59375 28 53.6875 23.703125 
Q 51.796875 19.40625 50.140625 15.703125 
Q 48.5 12 47.5 9.59375 
z
" id="Ubuntu-4d"/>
       <path d="M 23.59375 -1 
Q 15 -0.796875 11.390625 2.703125 
Q 7.796875 6.203125 7.796875 13.59375 
L 7.796875 76 
L 17.09375 77.59375 
L 17.09375 15.09375 
Q 17.09375 12.796875 17.5 11.296875 
Q 17.90625 9.796875 18.796875 8.890625 
Q 19.703125 8 21.203125 7.546875 
Q 22.703125 7.09375 24.90625 6.796875 
z
" id="Ubuntu-6c"/>
      </defs>
      <g style="fill:#262626;" transform="translate(54.075 454.596785)scale(0.12 -0.12)">
       <use xlink:href="#Ubuntu-4d"/>
       <use x="87.099991" xlink:href="#Ubuntu-6f"/>
       <use x="146.099976" xlink:href="#Ubuntu-62"/>
       <use x="204.999969" xlink:href="#Ubuntu-69"/>
       <use x="230.299957" xlink:href="#Ubuntu-6c"/>
       <use x="257.599945" xlink:href="#Ubuntu-65"/>
       <use x="313.499939" xlink:href="#Ubuntu-20"/>
       <use x="336.59993" xlink:href="#Ubuntu-57"/>
       <use x="429.468674" xlink:href="#Ubuntu-65"/>
       <use x="485.368668" xlink:href="#Ubuntu-62"/>
      </g>
     </g>
    </g>
    <g id="ytick_4">
     <g id="text_4">
      <!-- TweetDeck -->
      <defs>
       <path d="M 65.5 34.703125 
Q 65.5 25.703125 62.703125 19.046875 
Q 59.90625 12.40625 54.796875 8.046875 
Q 49.703125 3.703125 42.59375 1.546875 
Q 35.5 -0.59375 27 -0.59375 
Q 22.796875 -0.59375 17.75 -0.25 
Q 12.703125 0.09375 8.59375 1.09375 
L 8.59375 68.296875 
Q 12.703125 69.296875 17.75 69.640625 
Q 22.796875 70 27 70 
Q 35.5 70 42.59375 67.84375 
Q 49.703125 65.703125 54.796875 61.34375 
Q 59.90625 57 62.703125 50.34375 
Q 65.5 43.703125 65.5 34.703125 
M 27.796875 7.90625 
Q 41.59375 7.90625 48.390625 14.953125 
Q 55.203125 22 55.203125 34.703125 
Q 55.203125 47.40625 48.390625 54.453125 
Q 41.59375 61.5 27.796875 61.5 
Q 23.703125 61.5 21.453125 61.390625 
Q 19.203125 61.296875 18.296875 61.203125 
L 18.296875 8.203125 
Q 19.203125 8.09375 21.453125 8 
Q 23.703125 7.90625 27.796875 7.90625 
" id="Ubuntu-44"/>
      </defs>
      <g style="fill:#262626;" transform="translate(57.94875 399.705696)scale(0.12 -0.12)">
       <use xlink:href="#Ubuntu-54"/>
       <use x="56.374985" xlink:href="#Ubuntu-77"/>
       <use x="134.074966" xlink:href="#Ubuntu-65"/>
       <use x="189.97496" xlink:href="#Ubuntu-65"/>
       <use x="245.874954" xlink:href="#Ubuntu-74"/>
       <use x="286.074951" xlink:href="#Ubuntu-44"/>
       <use x="357.374939" xlink:href="#Ubuntu-65"/>
       <use x="413.274933" xlink:href="#Ubuntu-63"/>
       <use x="459.774918" xlink:href="#Ubuntu-6b"/>
      </g>
     </g>
    </g>
    <g id="ytick_5">
     <g id="text_5">
      <!-- iOS -->
      <defs>
       <path d="M 5.796875 34.703125 
Q 5.796875 43.59375 8.4375 50.390625 
Q 11.09375 57.203125 15.640625 61.75 
Q 20.203125 66.296875 26.25 68.59375 
Q 32.296875 70.90625 39.09375 70.90625 
Q 45.796875 70.90625 51.75 68.59375 
Q 57.703125 66.296875 62.203125 61.75 
Q 66.703125 57.203125 69.34375 50.390625 
Q 72 43.59375 72 34.703125 
Q 72 25.796875 69.34375 19 
Q 66.703125 12.203125 62.203125 7.640625 
Q 57.703125 3.09375 51.75 0.796875 
Q 45.796875 -1.5 39.09375 -1.5 
Q 32.296875 -1.5 26.25 0.796875 
Q 20.203125 3.09375 15.640625 7.640625 
Q 11.09375 12.203125 8.4375 19 
Q 5.796875 25.796875 5.796875 34.703125 
M 16 34.703125 
Q 16 28.40625 17.59375 23.25 
Q 19.203125 18.09375 22.140625 14.5 
Q 25.09375 10.90625 29.34375 8.953125 
Q 33.59375 7 38.90625 7 
Q 44.203125 7 48.390625 8.953125 
Q 52.59375 10.90625 55.546875 14.5 
Q 58.5 18.09375 60.09375 23.25 
Q 61.703125 28.40625 61.703125 34.703125 
Q 61.703125 41 60.09375 46.140625 
Q 58.5 51.296875 55.546875 54.890625 
Q 52.59375 58.5 48.390625 60.453125 
Q 44.203125 62.40625 38.90625 62.40625 
Q 33.59375 62.40625 29.34375 60.453125 
Q 25.09375 58.5 22.140625 54.890625 
Q 19.203125 51.296875 17.59375 46.140625 
Q 16 41 16 34.703125 
" id="Ubuntu-4f"/>
       <path d="M 24.703125 6.90625 
Q 39.90625 6.90625 39.90625 17.296875 
Q 39.90625 20.5 38.546875 22.75 
Q 37.203125 25 34.890625 26.640625 
Q 32.59375 28.296875 29.640625 29.5 
Q 26.703125 30.703125 23.40625 31.90625 
Q 19.59375 33.203125 16.1875 34.84375 
Q 12.796875 36.5 10.296875 38.75 
Q 7.796875 41 6.34375 44.09375 
Q 4.90625 47.203125 4.90625 51.59375 
Q 4.90625 60.703125 11.09375 65.796875 
Q 17.296875 70.90625 28.203125 70.90625 
Q 34.5 70.90625 39.640625 69.546875 
Q 44.796875 68.203125 47.203125 66.59375 
L 44.09375 58.703125 
Q 42 60 37.84375 61.25 
Q 33.703125 62.5 28.203125 62.5 
Q 25.40625 62.5 23 61.890625 
Q 20.59375 61.296875 18.796875 60.09375 
Q 17 58.90625 15.953125 57.046875 
Q 14.90625 55.203125 14.90625 52.703125 
Q 14.90625 49.90625 16 48 
Q 17.09375 46.09375 19.09375 44.640625 
Q 21.09375 43.203125 23.75 42 
Q 26.40625 40.796875 29.59375 39.59375 
Q 34.09375 37.796875 37.84375 36 
Q 41.59375 34.203125 44.34375 31.703125 
Q 47.09375 29.203125 48.59375 25.75 
Q 50.09375 22.296875 50.09375 17.40625 
Q 50.09375 8.296875 43.4375 3.390625 
Q 36.796875 -1.5 24.703125 -1.5 
Q 20.59375 -1.5 17.140625 -0.953125 
Q 13.703125 -0.40625 11 0.34375 
Q 8.296875 1.09375 6.34375 1.9375 
Q 4.40625 2.796875 3.296875 3.40625 
L 6.203125 11.40625 
Q 8.5 10.09375 13.203125 8.5 
Q 17.90625 6.90625 24.703125 6.90625 
" id="Ubuntu-53"/>
      </defs>
      <g style="fill:#262626;" transform="translate(100.635 344.814607)scale(0.12 -0.12)">
       <use xlink:href="#Ubuntu-69"/>
       <use x="25.299988" xlink:href="#Ubuntu-4f"/>
       <use x="103.084351" xlink:href="#Ubuntu-53"/>
      </g>
     </g>
    </g>
    <g id="ytick_6">
     <g id="text_6">
      <!-- Twitter Lite -->
      <defs>
       <path d="M 50.296875 8.40625 
L 50.296875 0 
L 8.59375 0 
L 8.59375 69.296875 
L 18.296875 69.296875 
L 18.296875 8.40625 
z
" id="Ubuntu-4c"/>
      </defs>
      <g style="fill:#262626;" transform="translate(55.71 289.923518)scale(0.12 -0.12)">
       <use xlink:href="#Ubuntu-54"/>
       <use x="56.374985" xlink:href="#Ubuntu-77"/>
       <use x="134.074966" xlink:href="#Ubuntu-69"/>
       <use x="159.374954" xlink:href="#Ubuntu-74"/>
       <use x="199.574951" xlink:href="#Ubuntu-74"/>
       <use x="239.759323" xlink:href="#Ubuntu-65"/>
       <use x="295.659317" xlink:href="#Ubuntu-72"/>
       <use x="334.259308" xlink:href="#Ubuntu-20"/>
       <use x="357.359299" xlink:href="#Ubuntu-4c"/>
       <use x="409.259293" xlink:href="#Ubuntu-69"/>
       <use x="434.55928" xlink:href="#Ubuntu-74"/>
       <use x="474.743652" xlink:href="#Ubuntu-65"/>
      </g>
     </g>
    </g>
    <g id="ytick_7">
     <g id="text_7">
      <!-- Twitter for Android -->
      <defs>
       <path d="M 54.90625 0 
Q 53.203125 4.5 51.703125 8.84375 
Q 50.203125 13.203125 48.59375 17.703125 
L 17.203125 17.703125 
L 10.90625 0 
L 0.796875 0 
Q 4.796875 11 8.296875 20.34375 
Q 11.796875 29.703125 15.140625 38.09375 
Q 18.5 46.5 21.796875 54.140625 
Q 25.09375 61.796875 28.703125 69.296875 
L 37.59375 69.296875 
Q 41.203125 61.796875 44.5 54.140625 
Q 47.796875 46.5 51.140625 38.09375 
Q 54.5 29.703125 58 20.34375 
Q 61.5 11 65.5 0 
z
M 45.796875 25.703125 
Q 42.59375 34.40625 39.4375 42.546875 
Q 36.296875 50.703125 32.90625 58.203125 
Q 29.40625 50.703125 26.25 42.546875 
Q 23.09375 34.40625 20 25.703125 
z
" id="Ubuntu-41"/>
       <path d="M 8 50.5 
Q 11.203125 51.296875 16.5 52.1875 
Q 21.796875 53.09375 28.703125 53.09375 
Q 34.90625 53.09375 39 51.34375 
Q 43.09375 49.59375 45.546875 46.4375 
Q 48 43.296875 49 38.890625 
Q 50 34.5 50 29.203125 
L 50 0 
L 40.703125 0 
L 40.703125 27.203125 
Q 40.703125 32 40.046875 35.390625 
Q 39.40625 38.796875 37.90625 40.890625 
Q 36.40625 43 33.90625 43.953125 
Q 31.40625 44.90625 27.703125 44.90625 
Q 26.203125 44.90625 24.59375 44.796875 
Q 23 44.703125 21.546875 44.546875 
Q 20.09375 44.40625 18.9375 44.203125 
Q 17.796875 44 17.296875 43.90625 
L 17.296875 0 
L 8 0 
z
" id="Ubuntu-6e"/>
       <path d="M 41.59375 41 
Q 39.90625 42.40625 36.703125 43.703125 
Q 33.5 45 29.703125 45 
Q 25.703125 45 22.84375 43.546875 
Q 20 42.09375 18.203125 39.546875 
Q 16.40625 37 15.59375 33.5 
Q 14.796875 30 14.796875 26 
Q 14.796875 16.90625 19.296875 11.953125 
Q 23.796875 7 31.296875 7 
Q 35.09375 7 37.640625 7.34375 
Q 40.203125 7.703125 41.59375 8.09375 
z
M 41.59375 76 
L 50.90625 77.59375 
L 50.90625 1.5 
Q 47.703125 0.59375 42.703125 -0.296875 
Q 37.703125 -1.203125 31.203125 -1.203125 
Q 25.203125 -1.203125 20.390625 0.6875 
Q 15.59375 2.59375 12.1875 6.09375 
Q 8.796875 9.59375 6.9375 14.640625 
Q 5.09375 19.703125 5.09375 26 
Q 5.09375 32 6.640625 37 
Q 8.203125 42 11.203125 45.59375 
Q 14.203125 49.203125 18.546875 51.203125 
Q 22.90625 53.203125 28.5 53.203125 
Q 33 53.203125 36.453125 52 
Q 39.90625 50.796875 41.59375 49.703125 
z
" id="Ubuntu-64"/>
      </defs>
      <g style="fill:#262626;" transform="translate(13.663125 235.032429)scale(0.12 -0.12)">
       <use xlink:href="#Ubuntu-54"/>
       <use x="56.374985" xlink:href="#Ubuntu-77"/>
       <use x="134.074966" xlink:href="#Ubuntu-69"/>
       <use x="159.374954" xlink:href="#Ubuntu-74"/>
       <use x="199.574951" xlink:href="#Ubuntu-74"/>
       <use x="239.759323" xlink:href="#Ubuntu-65"/>
       <use x="295.659317" xlink:href="#Ubuntu-72"/>
       <use x="334.259308" xlink:href="#Ubuntu-20"/>
       <use x="357.359299" xlink:href="#Ubuntu-66"/>
       <use x="395.95929" xlink:href="#Ubuntu-6f"/>
       <use x="454.959274" xlink:href="#Ubuntu-72"/>
       <use x="493.559265" xlink:href="#Ubuntu-20"/>
       <use x="516.659256" xlink:href="#Ubuntu-41"/>
       <use x="582.959244" xlink:href="#Ubuntu-6e"/>
       <use x="640.359238" xlink:href="#Ubuntu-64"/>
       <use x="699.259232" xlink:href="#Ubuntu-72"/>
       <use x="737.859222" xlink:href="#Ubuntu-6f"/>
       <use x="796.859207" xlink:href="#Ubuntu-69"/>
       <use x="822.159195" xlink:href="#Ubuntu-64"/>
      </g>
     </g>
    </g>
    <g id="ytick_8">
     <g id="text_8">
      <!-- Twitter for iPad -->
      <defs>
       <path d="M 27 70 
Q 41.59375 70 49.4375 64.453125 
Q 57.296875 58.90625 57.296875 47.90625 
Q 57.296875 41.90625 55.140625 37.65625 
Q 53 33.40625 48.953125 30.75 
Q 44.90625 28.09375 39.09375 26.890625 
Q 33.296875 25.703125 26 25.703125 
L 18.296875 25.703125 
L 18.296875 0 
L 8.59375 0 
L 8.59375 68.296875 
Q 12.703125 69.296875 17.75 69.640625 
Q 22.796875 70 27 70 
M 27.796875 61.5 
Q 21.59375 61.5 18.296875 61.203125 
L 18.296875 34 
L 25.59375 34 
Q 30.59375 34 34.59375 34.640625 
Q 38.59375 35.296875 41.34375 36.84375 
Q 44.09375 38.40625 45.59375 41.09375 
Q 47.09375 43.796875 47.09375 48 
Q 47.09375 52 45.546875 54.59375 
Q 44 57.203125 41.34375 58.75 
Q 38.703125 60.296875 35.203125 60.890625 
Q 31.703125 61.5 27.796875 61.5 
" id="Ubuntu-50"/>
      </defs>
      <g style="fill:#262626;" transform="translate(33.729375 180.14134)scale(0.12 -0.12)">
       <use xlink:href="#Ubuntu-54"/>
       <use x="56.374985" xlink:href="#Ubuntu-77"/>
       <use x="134.074966" xlink:href="#Ubuntu-69"/>
       <use x="159.374954" xlink:href="#Ubuntu-74"/>
       <use x="199.574951" xlink:href="#Ubuntu-74"/>
       <use x="239.759323" xlink:href="#Ubuntu-65"/>
       <use x="295.659317" xlink:href="#Ubuntu-72"/>
       <use x="334.259308" xlink:href="#Ubuntu-20"/>
       <use x="357.359299" xlink:href="#Ubuntu-66"/>
       <use x="395.95929" xlink:href="#Ubuntu-6f"/>
       <use x="454.959274" xlink:href="#Ubuntu-72"/>
       <use x="493.559265" xlink:href="#Ubuntu-20"/>
       <use x="516.659256" xlink:href="#Ubuntu-69"/>
       <use x="541.959244" xlink:href="#Ubuntu-50"/>
       <use x="602.743607" xlink:href="#Ubuntu-61"/>
       <use x="654.943604" xlink:href="#Ubuntu-64"/>
      </g>
     </g>
    </g>
    <g id="ytick_9">
     <g id="text_9">
      <!-- Twitter for iPhone -->
      <defs>
       <path d="M 8 0 
L 8 76 
L 17.296875 77.59375 
L 17.296875 51 
Q 19.90625 52 22.84375 52.546875 
Q 25.796875 53.09375 28.703125 53.09375 
Q 34.90625 53.09375 39 51.34375 
Q 43.09375 49.59375 45.546875 46.4375 
Q 48 43.296875 49 38.890625 
Q 50 34.5 50 29.203125 
L 50 0 
L 40.703125 0 
L 40.703125 27.203125 
Q 40.703125 32 40.046875 35.390625 
Q 39.40625 38.796875 37.90625 40.890625 
Q 36.40625 43 33.90625 43.953125 
Q 31.40625 44.90625 27.703125 44.90625 
Q 26.203125 44.90625 24.59375 44.703125 
Q 23 44.5 21.546875 44.25 
Q 20.09375 44 18.9375 43.703125 
Q 17.796875 43.40625 17.296875 43.203125 
L 17.296875 0 
z
" id="Ubuntu-68"/>
      </defs>
      <g style="fill:#262626;" transform="translate(19.531875 125.250251)scale(0.12 -0.12)">
       <use xlink:href="#Ubuntu-54"/>
       <use x="56.374985" xlink:href="#Ubuntu-77"/>
       <use x="134.074966" xlink:href="#Ubuntu-69"/>
       <use x="159.374954" xlink:href="#Ubuntu-74"/>
       <use x="199.574951" xlink:href="#Ubuntu-74"/>
       <use x="239.759323" xlink:href="#Ubuntu-65"/>
       <use x="295.659317" xlink:href="#Ubuntu-72"/>
       <use x="334.259308" xlink:href="#Ubuntu-20"/>
       <use x="357.359299" xlink:href="#Ubuntu-66"/>
       <use x="395.95929" xlink:href="#Ubuntu-6f"/>
       <use x="454.959274" xlink:href="#Ubuntu-72"/>
       <use x="493.559265" xlink:href="#Ubuntu-20"/>
       <use x="516.659256" xlink:href="#Ubuntu-69"/>
       <use x="541.959244" xlink:href="#Ubuntu-50"/>
       <use x="602.759232" xlink:href="#Ubuntu-68"/>
       <use x="659.859222" xlink:href="#Ubuntu-6f"/>
       <use x="718.859207" xlink:href="#Ubuntu-6e"/>
       <use x="776.259201" xlink:href="#Ubuntu-65"/>
      </g>
     </g>
    </g>
    <g id="ytick_10">
     <g id="text_10">
      <!-- Twitter Web Client -->
      <defs>
       <path d="M 38.40625 -1.5 
Q 31.09375 -1.5 25.09375 0.890625 
Q 19.09375 3.296875 14.796875 7.890625 
Q 10.5 12.5 8.140625 19.25 
Q 5.796875 26 5.796875 34.703125 
Q 5.796875 43.40625 8.4375 50.15625 
Q 11.09375 56.90625 15.59375 61.5 
Q 20.09375 66.09375 26.09375 68.5 
Q 32.09375 70.90625 38.90625 70.90625 
Q 43.203125 70.90625 46.640625 70.296875 
Q 50.09375 69.703125 52.640625 68.890625 
Q 55.203125 68.09375 56.796875 67.296875 
Q 58.40625 66.5 59 66.09375 
L 56.203125 58.09375 
Q 55.296875 58.703125 53.59375 59.390625 
Q 51.90625 60.09375 49.75 60.796875 
Q 47.59375 61.5 45.046875 61.953125 
Q 42.5 62.40625 39.90625 62.40625 
Q 34.40625 62.40625 30 60.5 
Q 25.59375 58.59375 22.5 55 
Q 19.40625 51.40625 17.75 46.25 
Q 16.09375 41.09375 16.09375 34.703125 
Q 16.09375 28.5 17.546875 23.390625 
Q 19 18.296875 21.890625 14.640625 
Q 24.796875 11 29.140625 9 
Q 33.5 7 39.296875 7 
Q 46 7 50.390625 8.390625 
Q 54.796875 9.796875 57 10.90625 
L 59.5 2.90625 
Q 58.796875 2.40625 57 1.65625 
Q 55.203125 0.90625 52.5 0.203125 
Q 49.796875 -0.5 46.1875 -1 
Q 42.59375 -1.5 38.40625 -1.5 
" id="Ubuntu-43"/>
      </defs>
      <g style="fill:#262626;" transform="translate(16.63875 70.359162)scale(0.12 -0.12)">
       <use xlink:href="#Ubuntu-54"/>
       <use x="56.374985" xlink:href="#Ubuntu-77"/>
       <use x="134.074966" xlink:href="#Ubuntu-69"/>
       <use x="159.374954" xlink:href="#Ubuntu-74"/>
       <use x="199.574951" xlink:href="#Ubuntu-74"/>
       <use x="239.759323" xlink:href="#Ubuntu-65"/>
       <use x="295.659317" xlink:href="#Ubuntu-72"/>
       <use x="334.259308" xlink:href="#Ubuntu-20"/>
       <use x="357.359299" xlink:href="#Ubuntu-57"/>
       <use x="450.228043" xlink:href="#Ubuntu-65"/>
       <use x="506.128036" xlink:href="#Ubuntu-62"/>
       <use x="565.02803" xlink:href="#Ubuntu-20"/>
       <use x="588.128021" xlink:href="#Ubuntu-43"/>
       <use x="650.128006" xlink:href="#Ubuntu-6c"/>
       <use x="677.427994" xlink:href="#Ubuntu-69"/>
       <use x="702.727982" xlink:href="#Ubuntu-65"/>
       <use x="758.627975" xlink:href="#Ubuntu-6e"/>
       <use x="816.027969" xlink:href="#Ubuntu-74"/>
      </g>
     </g>
    </g>
   </g>
   <g id="patch_3">
    <path clip-path="url(#p041774b9cd)" d="M 122.88875 576.190665 
L 268.844484 576.190665 
L 268.844484 543.256012 
L 122.88875 543.256012 
z
" style="fill:#1f77b4;"/>
   </g>
   <g id="patch_4">
    <path clip-path="url(#p041774b9cd)" d="M 122.88875 521.299576 
L 284.28211 521.299576 
L 284.28211 488.364923 
L 122.88875 488.364923 
z
" style="fill:#1f77b4;"/>
   </g>
   <g id="patch_5">
    <path clip-path="url(#p041774b9cd)" d="M 122.88875 466.408487 
L 292.702633 466.408487 
L 292.702633 433.473834 
L 122.88875 433.473834 
z
" style="fill:#1f77b4;"/>
   </g>
   <g id="patch_6">
    <path clip-path="url(#p041774b9cd)" d="M 122.88875 411.517398 
L 298.316315 411.517398 
L 298.316315 378.582744 
L 122.88875 378.582744 
z
" style="fill:#1f77b4;"/>
   </g>
   <g id="patch_7">
    <path clip-path="url(#p041774b9cd)" d="M 122.88875 356.626309 
L 303.929997 356.626309 
L 303.929997 323.691655 
L 122.88875 323.691655 
z
" style="fill:#1f77b4;"/>
   </g>
   <g id="patch_8">
    <path clip-path="url(#p041774b9cd)" d="M 122.88875 301.73522 
L 420.413901 301.73522 
L 420.413901 268.800566 
L 122.88875 268.800566 
z
" style="fill:#1f77b4;"/>
   </g>
   <g id="patch_9">
    <path clip-path="url(#p041774b9cd)" d="M 122.88875 246.844131 
L 504.619132 246.844131 
L 504.619132 213.909477 
L 122.88875 213.909477 
z
" style="fill:#1f77b4;"/>
   </g>
   <g id="patch_10">
    <path clip-path="url(#p041774b9cd)" d="M 122.88875 191.953041 
L 577.596999 191.953041 
L 577.596999 159.018388 
L 122.88875 159.018388 
z
" style="fill:#1f77b4;"/>
   </g>
   <g id="patch_11">
    <path clip-path="url(#p041774b9cd)" d="M 122.88875 137.061952 
L 813.371647 137.061952 
L 813.371647 104.127299 
L 122.88875 104.127299 
z
" style="fill:#1f77b4;"/>
   </g>
   <g id="patch_12">
    <path clip-path="url(#p041774b9cd)" d="M 122.88875 82.170863 
L 920.031607 82.170863 
L 920.031607 49.23621 
L 122.88875 49.23621 
z
" style="fill:#1f77b4;"/>
   </g>
   <g id="text_11">
    <!-- Source Type -->
    <defs>
     <path d="M 26.90625 11.90625 
Q 30.203125 11.90625 32.34375 12.453125 
Q 34.5 13 35.796875 13.953125 
Q 37.09375 14.90625 37.59375 16.203125 
Q 38.09375 17.5 38.09375 19.09375 
Q 38.09375 22.5 34.890625 24.75 
Q 31.703125 27 23.90625 29.59375 
Q 20.5 30.796875 17.09375 32.34375 
Q 13.703125 33.90625 11 36.25 
Q 8.296875 38.59375 6.59375 41.9375 
Q 4.90625 45.296875 4.90625 50.09375 
Q 4.90625 54.90625 6.703125 58.75 
Q 8.5 62.59375 11.796875 65.296875 
Q 15.09375 68 19.796875 69.453125 
Q 24.5 70.90625 30.40625 70.90625 
Q 37.40625 70.90625 42.5 69.40625 
Q 47.59375 67.90625 50.90625 66.09375 
L 46.40625 53.796875 
Q 43.5 55.296875 39.953125 56.4375 
Q 36.40625 57.59375 31.40625 57.59375 
Q 25.796875 57.59375 23.34375 56.046875 
Q 20.90625 54.5 20.90625 51.296875 
Q 20.90625 49.40625 21.796875 48.09375 
Q 22.703125 46.796875 24.34375 45.75 
Q 26 44.703125 28.140625 43.84375 
Q 30.296875 43 32.90625 42.09375 
Q 38.296875 40.09375 42.296875 38.140625 
Q 46.296875 36.203125 48.9375 33.59375 
Q 51.59375 31 52.890625 27.5 
Q 54.203125 24 54.203125 19 
Q 54.203125 9.296875 47.390625 3.9375 
Q 40.59375 -1.40625 26.90625 -1.40625 
Q 22.296875 -1.40625 18.59375 -0.84375 
Q 14.90625 -0.296875 12.046875 0.5 
Q 9.203125 1.296875 7.140625 2.1875 
Q 5.09375 3.09375 3.703125 3.90625 
L 8.09375 16.296875 
Q 11.203125 14.59375 15.75 13.25 
Q 20.296875 11.90625 26.90625 11.90625 
" id="Ubuntu-Bold-53"/>
     <path d="M 56.203125 26.40625 
Q 56.203125 20.203125 54.390625 15.046875 
Q 52.59375 9.90625 49.1875 6.25 
Q 45.796875 2.59375 41.046875 0.59375 
Q 36.296875 -1.40625 30.40625 -1.40625 
Q 24.59375 -1.40625 19.84375 0.59375 
Q 15.09375 2.59375 11.6875 6.25 
Q 8.296875 9.90625 6.390625 15.046875 
Q 4.5 20.203125 4.5 26.40625 
Q 4.5 32.59375 6.453125 37.6875 
Q 8.40625 42.796875 11.84375 46.390625 
Q 15.296875 50 20.046875 52 
Q 24.796875 54 30.40625 54 
Q 36.09375 54 40.84375 52 
Q 45.59375 50 49 46.390625 
Q 52.40625 42.796875 54.296875 37.6875 
Q 56.203125 32.59375 56.203125 26.40625 
M 41 26.40625 
Q 41 33.296875 38.25 37.25 
Q 35.5 41.203125 30.40625 41.203125 
Q 25.296875 41.203125 22.5 37.25 
Q 19.703125 33.296875 19.703125 26.40625 
Q 19.703125 19.5 22.5 15.453125 
Q 25.296875 11.40625 30.40625 11.40625 
Q 35.5 11.40625 38.25 15.453125 
Q 41 19.5 41 26.40625 
" id="Ubuntu-Bold-6f"/>
     <path d="M 51.90625 1.796875 
Q 48.09375 0.703125 42.09375 -0.25 
Q 36.09375 -1.203125 29.5 -1.203125 
Q 22.796875 -1.203125 18.34375 0.59375 
Q 13.90625 2.40625 11.296875 5.65625 
Q 8.703125 8.90625 7.59375 13.40625 
Q 6.5 17.90625 6.5 23.296875 
L 6.5 52.59375 
L 21.40625 52.59375 
L 21.40625 25.09375 
Q 21.40625 17.90625 23.296875 14.703125 
Q 25.203125 11.5 30.40625 11.5 
Q 32 11.5 33.796875 11.640625 
Q 35.59375 11.796875 37 12 
L 37 52.59375 
L 51.90625 52.59375 
z
" id="Ubuntu-Bold-75"/>
     <path d="M 38.703125 39.40625 
Q 36.703125 39.90625 34 40.453125 
Q 31.296875 41 28.203125 41 
Q 26.796875 41 24.84375 40.75 
Q 22.90625 40.5 21.90625 40.203125 
L 21.90625 0 
L 7 0 
L 7 49.796875 
Q 11 51.203125 16.453125 52.453125 
Q 21.90625 53.703125 28.59375 53.703125 
Q 29.796875 53.703125 31.5 53.546875 
Q 33.203125 53.40625 34.890625 53.15625 
Q 36.59375 52.90625 38.296875 52.546875 
Q 40 52.203125 41.203125 51.703125 
z
" id="Ubuntu-Bold-72"/>
     <path d="M 4.5 26.296875 
Q 4.5 32 6.34375 37.046875 
Q 8.203125 42.09375 11.703125 45.84375 
Q 15.203125 49.59375 20.203125 51.796875 
Q 25.203125 54 31.59375 54 
Q 35.796875 54 39.296875 53.25 
Q 42.796875 52.5 46.09375 51.09375 
L 43 39.203125 
Q 40.90625 40 38.40625 40.59375 
Q 35.90625 41.203125 32.796875 41.203125 
Q 26.203125 41.203125 22.953125 37.09375 
Q 19.703125 33 19.703125 26.296875 
Q 19.703125 19.203125 22.75 15.296875 
Q 25.796875 11.40625 33.40625 11.40625 
Q 36.09375 11.40625 39.1875 11.90625 
Q 42.296875 12.40625 44.90625 13.5 
L 47 1.296875 
Q 44.40625 0.203125 40.5 -0.59375 
Q 36.59375 -1.40625 31.90625 -1.40625 
Q 24.703125 -1.40625 19.5 0.75 
Q 14.296875 2.90625 10.9375 6.59375 
Q 7.59375 10.296875 6.046875 15.34375 
Q 4.5 20.40625 4.5 26.296875 
" id="Ubuntu-Bold-63"/>
     <path d="M 4.5 25.90625 
Q 4.5 32.90625 6.640625 38.15625 
Q 8.796875 43.40625 12.296875 46.90625 
Q 15.796875 50.40625 20.34375 52.203125 
Q 24.90625 54 29.703125 54 
Q 40.90625 54 47.40625 47.140625 
Q 53.90625 40.296875 53.90625 27 
Q 53.90625 25.703125 53.796875 24.140625 
Q 53.703125 22.59375 53.59375 21.40625 
L 19.796875 21.40625 
Q 20.296875 16.796875 24.09375 14.09375 
Q 27.90625 11.40625 34.296875 11.40625 
Q 38.40625 11.40625 42.34375 12.15625 
Q 46.296875 12.90625 48.796875 14 
L 50.796875 1.90625 
Q 49.59375 1.296875 47.59375 0.6875 
Q 45.59375 0.09375 43.140625 -0.34375 
Q 40.703125 -0.796875 37.890625 -1.09375 
Q 35.09375 -1.40625 32.296875 -1.40625 
Q 25.203125 -1.40625 19.953125 0.6875 
Q 14.703125 2.796875 11.25 6.4375 
Q 7.796875 10.09375 6.140625 15.09375 
Q 4.5 20.09375 4.5 25.90625 
M 39.5 31.59375 
Q 39.40625 33.5 38.84375 35.296875 
Q 38.296875 37.09375 37.140625 38.5 
Q 36 39.90625 34.25 40.796875 
Q 32.5 41.703125 29.90625 41.703125 
Q 27.40625 41.703125 25.59375 40.84375 
Q 23.796875 40 22.59375 38.59375 
Q 21.40625 37.203125 20.75 35.34375 
Q 20.09375 33.5 19.796875 31.59375 
z
" id="Ubuntu-Bold-65"/>
     <path id="Ubuntu-Bold-20"/>
     <path d="M 59.40625 69.296875 
L 59.40625 56 
L 38.5 56 
L 38.5 0 
L 22.90625 0 
L 22.90625 56 
L 2 56 
L 2 69.296875 
z
" id="Ubuntu-Bold-54"/>
     <path d="M 53.703125 52.59375 
Q 49.203125 37.40625 44.296875 24.09375 
Q 39.40625 10.796875 33.59375 -1.703125 
Q 31.5 -6.203125 29.390625 -9.34375 
Q 27.296875 -12.5 24.796875 -14.546875 
Q 22.296875 -16.59375 19.140625 -17.546875 
Q 16 -18.5 11.796875 -18.5 
Q 8.296875 -18.5 5.34375 -17.84375 
Q 2.40625 -17.203125 0.5 -16.40625 
L 3.09375 -4.5 
Q 5.40625 -5.296875 7.203125 -5.59375 
Q 9 -5.90625 11 -5.90625 
Q 15 -5.90625 17.140625 -3.75 
Q 19.296875 -1.59375 20.796875 2.203125 
Q 15.703125 12.203125 10.59375 24.640625 
Q 5.5 37.09375 1 52.59375 
L 16.796875 52.59375 
Q 17.796875 48.703125 19.140625 44.140625 
Q 20.5 39.59375 22 34.9375 
Q 23.5 30.296875 25.046875 25.890625 
Q 26.59375 21.5 28 17.90625 
Q 29.296875 21.5 30.6875 25.890625 
Q 32.09375 30.296875 33.4375 34.9375 
Q 34.796875 39.59375 36.046875 44.140625 
Q 37.296875 48.703125 38.296875 52.59375 
z
" id="Ubuntu-Bold-79"/>
     <path d="M 40.703125 25.90625 
Q 40.703125 32.796875 37.59375 36.9375 
Q 34.5 41.09375 28.40625 41.09375 
Q 26.40625 41.09375 24.703125 40.9375 
Q 23 40.796875 21.90625 40.59375 
L 21.90625 13.703125 
Q 23.296875 12.796875 25.546875 12.1875 
Q 27.796875 11.59375 30.09375 11.59375 
Q 40.703125 11.59375 40.703125 25.90625 
M 55.90625 26.296875 
Q 55.90625 20.203125 54.40625 15.203125 
Q 52.90625 10.203125 50 6.59375 
Q 47.09375 3 42.796875 1 
Q 38.5 -1 32.90625 -1 
Q 29.796875 -1 27.09375 -0.390625 
Q 24.40625 0.203125 21.90625 1.296875 
L 21.90625 -18.5 
L 7 -18.5 
L 7 50.796875 
Q 9 51.40625 11.59375 51.953125 
Q 14.203125 52.5 17.046875 52.890625 
Q 19.90625 53.296875 22.84375 53.546875 
Q 25.796875 53.796875 28.5 53.796875 
Q 35 53.796875 40.09375 51.84375 
Q 45.203125 49.90625 48.703125 46.34375 
Q 52.203125 42.796875 54.046875 37.6875 
Q 55.90625 32.59375 55.90625 26.296875 
" id="Ubuntu-Bold-70"/>
    </defs>
    <g style="fill:#262626;" transform="translate(31.565625 46.376562)scale(0.14 -0.14)">
     <use xlink:href="#Ubuntu-Bold-53"/>
     <use x="58.199997" xlink:href="#Ubuntu-Bold-6f"/>
     <use x="118.899994" xlink:href="#Ubuntu-Bold-75"/>
     <use x="177.799988" xlink:href="#Ubuntu-Bold-72"/>
     <use x="219.98436" xlink:href="#Ubuntu-Bold-63"/>
     <use x="269.953094" xlink:href="#Ubuntu-Bold-65"/>
     <use x="328.353088" xlink:href="#Ubuntu-Bold-20"/>
     <use x="352.353073" xlink:href="#Ubuntu-Bold-54"/>
     <use x="413.643692" xlink:href="#Ubuntu-Bold-79"/>
     <use x="468.343689" xlink:href="#Ubuntu-Bold-70"/>
     <use x="528.743683" xlink:href="#Ubuntu-Bold-65"/>
    </g>
   </g>
  </g>
  <g id="axes_2">
   <g id="matplotlib.axis_3">
    <g id="ytick_11">
     <g id="text_12">
      <!-- 104 -->
      <defs>
       <path d="M 9.296875 55 
Q 15 57.203125 20.390625 60.640625 
Q 25.796875 64.09375 30.296875 69.296875 
L 36.90625 69.296875 
L 36.90625 0 
L 27.59375 0 
L 27.59375 56.40625 
Q 26.40625 55.296875 24.65625 54.09375 
Q 22.90625 52.90625 20.84375 51.796875 
Q 18.796875 50.703125 16.546875 49.703125 
Q 14.296875 48.703125 12.203125 48 
z
" id="Ubuntu-31"/>
       <path d="M 5 34.703125 
Q 5 52.09375 11.140625 61.5 
Q 17.296875 70.90625 28.203125 70.90625 
Q 39.09375 70.90625 45.25 61.5 
Q 51.40625 52.09375 51.40625 34.703125 
Q 51.40625 17.296875 45.25 7.890625 
Q 39.09375 -1.5 28.203125 -1.5 
Q 17.296875 -1.5 11.140625 7.890625 
Q 5 17.296875 5 34.703125 
M 41.59375 34.703125 
Q 41.59375 40.40625 40.9375 45.5 
Q 40.296875 50.59375 38.75 54.390625 
Q 37.203125 58.203125 34.59375 60.453125 
Q 32 62.703125 28.203125 62.703125 
Q 24.40625 62.703125 21.796875 60.453125 
Q 19.203125 58.203125 17.640625 54.390625 
Q 16.09375 50.59375 15.4375 45.5 
Q 14.796875 40.40625 14.796875 34.703125 
Q 14.796875 29 15.4375 23.890625 
Q 16.09375 18.796875 17.640625 15 
Q 19.203125 11.203125 21.796875 8.953125 
Q 24.40625 6.703125 28.203125 6.703125 
Q 32 6.703125 34.59375 8.953125 
Q 37.203125 11.203125 38.75 15 
Q 40.296875 18.796875 40.9375 23.890625 
Q 41.59375 29 41.59375 34.703125 
" id="Ubuntu-30"/>
       <path d="M 4 24 
Q 5.90625 28.40625 9.203125 34.25 
Q 12.5 40.09375 16.640625 46.296875 
Q 20.796875 52.5 25.546875 58.5 
Q 30.296875 64.5 35.09375 69.296875 
L 44 69.296875 
L 44 25.296875 
L 52.203125 25.296875 
L 52.203125 17.703125 
L 44 17.703125 
L 44 0 
L 35 0 
L 35 17.703125 
L 4 17.703125 
z
M 35 58.296875 
Q 32 55.09375 28.953125 51.140625 
Q 25.90625 47.203125 23 42.890625 
Q 20.09375 38.59375 17.546875 34.09375 
Q 15 29.59375 13 25.296875 
L 35 25.296875 
z
" id="Ubuntu-34"/>
      </defs>
      <g style="fill:#262626;" transform="translate(963.38875 564.378963)scale(0.12 -0.12)">
       <use xlink:href="#Ubuntu-31"/>
       <use x="56.399994" xlink:href="#Ubuntu-30"/>
       <use x="112.799988" xlink:href="#Ubuntu-34"/>
      </g>
     </g>
    </g>
    <g id="ytick_12">
     <g id="text_13">
      <!-- 115 -->
      <defs>
       <path d="M 19.90625 42.59375 
Q 35 42 42.046875 36 
Q 49.09375 30 49.09375 19.703125 
Q 49.09375 15.09375 47.546875 11.1875 
Q 46 7.296875 42.84375 4.5 
Q 39.703125 1.703125 34.890625 0.09375 
Q 30.09375 -1.5 23.5 -1.5 
Q 20.90625 -1.5 18.203125 -1.09375 
Q 15.5 -0.703125 13.203125 -0.09375 
Q 10.90625 0.5 9.09375 1.09375 
Q 7.296875 1.703125 6.5 2.09375 
L 8.296875 10.203125 
Q 10 9.40625 13.84375 8.09375 
Q 17.703125 6.796875 23.296875 6.796875 
Q 27.796875 6.796875 30.84375 7.796875 
Q 33.90625 8.796875 35.796875 10.5 
Q 37.703125 12.203125 38.546875 14.453125 
Q 39.40625 16.703125 39.40625 19.203125 
Q 39.40625 23 38.09375 25.953125 
Q 36.796875 28.90625 33.5 30.90625 
Q 30.203125 32.90625 24.703125 33.953125 
Q 19.203125 35 10.796875 35 
Q 11.40625 39.90625 11.75 44.203125 
Q 12.09375 48.5 12.390625 52.59375 
Q 12.703125 56.703125 12.890625 60.75 
Q 13.09375 64.796875 13.296875 69.296875 
L 46.703125 69.296875 
L 46.703125 61.40625 
L 21.40625 61.40625 
Q 21.296875 59.90625 21.09375 57.34375 
Q 20.90625 54.796875 20.703125 52.046875 
Q 20.5 49.296875 20.296875 46.6875 
Q 20.09375 44.09375 19.90625 42.59375 
" id="Ubuntu-35"/>
      </defs>
      <g style="fill:#262626;" transform="translate(963.38875 509.487874)scale(0.12 -0.12)">
       <use xlink:href="#Ubuntu-31"/>
       <use x="56.399994" xlink:href="#Ubuntu-31"/>
       <use x="112.799988" xlink:href="#Ubuntu-35"/>
      </g>
     </g>
    </g>
    <g id="ytick_13">
     <g id="text_14">
      <!-- 121 -->
      <defs>
       <path d="M 46.703125 51.59375 
Q 46.703125 48 45.25 44.640625 
Q 43.796875 41.296875 41.390625 38.046875 
Q 39 34.796875 36 31.640625 
Q 33 28.5 30 25.5 
Q 28.296875 23.796875 26.046875 21.5 
Q 23.796875 19.203125 21.796875 16.703125 
Q 19.796875 14.203125 18.4375 11.890625 
Q 17.09375 9.59375 17.09375 7.90625 
L 49 7.90625 
L 49 0 
L 7 0 
Q 6.90625 0.59375 6.90625 1.1875 
Q 6.90625 1.796875 6.90625 2.296875 
Q 6.90625 7 8.453125 11.046875 
Q 10 15.09375 12.5 18.6875 
Q 15 22.296875 18.09375 25.5 
Q 21.203125 28.703125 24.203125 31.703125 
Q 26.703125 34.09375 28.953125 36.4375 
Q 31.203125 38.796875 32.953125 41.140625 
Q 34.703125 43.5 35.75 46 
Q 36.796875 48.5 36.796875 51.296875 
Q 36.796875 54.296875 35.84375 56.390625 
Q 34.90625 58.5 33.296875 59.890625 
Q 31.703125 61.296875 29.546875 61.9375 
Q 27.40625 62.59375 25 62.59375 
Q 22.09375 62.59375 19.6875 61.796875 
Q 17.296875 61 15.390625 59.953125 
Q 13.5 58.90625 12.203125 57.75 
Q 10.90625 56.59375 10.203125 56 
L 5.59375 62.59375 
Q 6.5 63.59375 8.296875 65.046875 
Q 10.09375 66.5 12.59375 67.796875 
Q 15.09375 69.09375 18.1875 70 
Q 21.296875 70.90625 24.90625 70.90625 
Q 35.796875 70.90625 41.25 65.84375 
Q 46.703125 60.796875 46.703125 51.59375 
" id="Ubuntu-32"/>
      </defs>
      <g style="fill:#262626;" transform="translate(963.38875 454.596785)scale(0.12 -0.12)">
       <use xlink:href="#Ubuntu-31"/>
       <use x="56.399994" xlink:href="#Ubuntu-32"/>
       <use x="112.799988" xlink:href="#Ubuntu-31"/>
      </g>
     </g>
    </g>
    <g id="ytick_14">
     <g id="text_15">
      <!-- 125 -->
      <g style="fill:#262626;" transform="translate(963.38875 399.705696)scale(0.12 -0.12)">
       <use xlink:href="#Ubuntu-31"/>
       <use x="56.399994" xlink:href="#Ubuntu-32"/>
       <use x="112.799988" xlink:href="#Ubuntu-35"/>
      </g>
     </g>
    </g>
    <g id="ytick_15">
     <g id="text_16">
      <!-- 129 -->
      <defs>
       <path d="M 50.09375 41.59375 
Q 50.09375 21 39.84375 10.453125 
Q 29.59375 -0.09375 9.40625 -0.203125 
L 9.09375 7.59375 
Q 15.40625 7.59375 20.453125 8.796875 
Q 25.5 10 29.296875 12.640625 
Q 33.09375 15.296875 35.640625 19.5 
Q 38.203125 23.703125 39.40625 29.796875 
Q 36.796875 28.59375 33.5 27.84375 
Q 30.203125 27.09375 26.703125 27.09375 
Q 20.796875 27.09375 16.6875 28.84375 
Q 12.59375 30.59375 10 33.546875 
Q 7.40625 36.5 6.25 40.34375 
Q 5.09375 44.203125 5.09375 48.40625 
Q 5.09375 52.09375 6.390625 56.09375 
Q 7.703125 60.09375 10.34375 63.390625 
Q 13 66.703125 17.09375 68.796875 
Q 21.203125 70.90625 26.796875 70.90625 
Q 32.5 70.90625 36.84375 68.90625 
Q 41.203125 66.90625 44.140625 63.09375 
Q 47.09375 59.296875 48.59375 53.84375 
Q 50.09375 48.40625 50.09375 41.59375 
M 27.703125 34.703125 
Q 31.203125 34.703125 34.296875 35.34375 
Q 37.40625 36 40.296875 37.296875 
Q 40.40625 38.40625 40.40625 39.453125 
Q 40.40625 40.5 40.40625 41.59375 
Q 40.40625 45.90625 39.796875 49.84375 
Q 39.203125 53.796875 37.640625 56.75 
Q 36.09375 59.703125 33.5 61.453125 
Q 30.90625 63.203125 26.90625 63.203125 
Q 23.59375 63.203125 21.296875 61.796875 
Q 19 60.40625 17.5 58.25 
Q 16 56.09375 15.34375 53.546875 
Q 14.703125 51 14.703125 48.59375 
Q 14.703125 41.796875 17.953125 38.25 
Q 21.203125 34.703125 27.703125 34.703125 
" id="Ubuntu-39"/>
      </defs>
      <g style="fill:#262626;" transform="translate(963.38875 344.814607)scale(0.12 -0.12)">
       <use xlink:href="#Ubuntu-31"/>
       <use x="56.399994" xlink:href="#Ubuntu-32"/>
       <use x="112.799988" xlink:href="#Ubuntu-39"/>
      </g>
     </g>
    </g>
    <g id="ytick_16">
     <g id="text_17">
      <!-- 212 -->
      <g style="fill:#262626;" transform="translate(963.38875 289.923518)scale(0.12 -0.12)">
       <use xlink:href="#Ubuntu-32"/>
       <use x="56.399994" xlink:href="#Ubuntu-31"/>
       <use x="112.799988" xlink:href="#Ubuntu-32"/>
      </g>
     </g>
    </g>
    <g id="ytick_17">
     <g id="text_18">
      <!-- 272 -->
      <defs>
       <path d="M 16.296875 0 
Q 16.90625 8 19.15625 16.84375 
Q 21.40625 25.703125 24.703125 34.046875 
Q 28 42.40625 31.953125 49.546875 
Q 35.90625 56.703125 39.703125 61.203125 
L 6 61.203125 
L 6 69.296875 
L 50.09375 69.296875 
L 50.09375 61.59375 
Q 46.796875 57.796875 42.796875 51.140625 
Q 38.796875 44.5 35.25 36.25 
Q 31.703125 28 29.140625 18.640625 
Q 26.59375 9.296875 26 0 
z
" id="Ubuntu-37"/>
      </defs>
      <g style="fill:#262626;" transform="translate(963.38875 235.032429)scale(0.12 -0.12)">
       <use xlink:href="#Ubuntu-32"/>
       <use x="56.399994" xlink:href="#Ubuntu-37"/>
       <use x="112.799988" xlink:href="#Ubuntu-32"/>
      </g>
     </g>
    </g>
    <g id="ytick_18">
     <g id="text_19">
      <!-- 324 -->
      <defs>
       <path d="M 22.59375 6.796875 
Q 31.5 6.796875 35.34375 10.296875 
Q 39.203125 13.796875 39.203125 19.703125 
Q 39.203125 23.5 37.59375 26.09375 
Q 36 28.703125 33.390625 30.25 
Q 30.796875 31.796875 27.34375 32.4375 
Q 23.90625 33.09375 20.296875 33.09375 
L 17.90625 33.09375 
L 17.90625 40.703125 
L 21.203125 40.703125 
Q 23.703125 40.703125 26.34375 41.203125 
Q 29 41.703125 31.203125 43 
Q 33.40625 44.296875 34.796875 46.546875 
Q 36.203125 48.796875 36.203125 52.203125 
Q 36.203125 55 35.203125 57 
Q 34.203125 59 32.546875 60.296875 
Q 30.90625 61.59375 28.75 62.140625 
Q 26.59375 62.703125 24.203125 62.703125 
Q 19.40625 62.703125 16.046875 61.296875 
Q 12.703125 59.90625 10.40625 58.40625 
L 6.796875 65.5 
Q 8 66.296875 9.84375 67.25 
Q 11.703125 68.203125 14 69 
Q 16.296875 69.796875 18.9375 70.34375 
Q 21.59375 70.90625 24.5 70.90625 
Q 30 70.90625 34 69.546875 
Q 38 68.203125 40.59375 65.75 
Q 43.203125 63.296875 44.5 59.9375 
Q 45.796875 56.59375 45.796875 52.703125 
Q 45.796875 47.296875 42.6875 43.4375 
Q 39.59375 39.59375 35.203125 37.59375 
Q 37.90625 36.796875 40.40625 35.296875 
Q 42.90625 33.796875 44.75 31.5 
Q 46.59375 29.203125 47.75 26.203125 
Q 48.90625 23.203125 48.90625 19.5 
Q 48.90625 15 47.34375 11.140625 
Q 45.796875 7.296875 42.546875 4.5 
Q 39.296875 1.703125 34.390625 0.09375 
Q 29.5 -1.5 22.796875 -1.5 
Q 20.203125 -1.5 17.453125 -1.09375 
Q 14.703125 -0.703125 12.296875 -0.09375 
Q 9.90625 0.5 8.09375 1.09375 
Q 6.296875 1.703125 5.5 2.09375 
L 7.296875 10.203125 
Q 9 9.40625 12.953125 8.09375 
Q 16.90625 6.796875 22.59375 6.796875 
" id="Ubuntu-33"/>
      </defs>
      <g style="fill:#262626;" transform="translate(963.38875 180.14134)scale(0.12 -0.12)">
       <use xlink:href="#Ubuntu-33"/>
       <use x="56.399994" xlink:href="#Ubuntu-32"/>
       <use x="112.799988" xlink:href="#Ubuntu-34"/>
      </g>
     </g>
    </g>
    <g id="ytick_19">
     <g id="text_20">
      <!-- 492 -->
      <g style="fill:#262626;" transform="translate(963.38875 125.250251)scale(0.12 -0.12)">
       <use xlink:href="#Ubuntu-34"/>
       <use x="56.399994" xlink:href="#Ubuntu-39"/>
       <use x="112.799988" xlink:href="#Ubuntu-32"/>
      </g>
     </g>
    </g>
    <g id="ytick_20">
     <g id="text_21">
      <!-- 568 -->
      <defs>
       <path d="M 6.296875 27.796875 
Q 6.296875 37.90625 9.09375 45.65625 
Q 11.90625 53.40625 17.046875 58.703125 
Q 22.203125 64 29.546875 66.75 
Q 36.90625 69.5 46.09375 69.59375 
L 46.796875 61.796875 
Q 40.90625 61.703125 36.046875 60.5 
Q 31.203125 59.296875 27.390625 56.6875 
Q 23.59375 54.09375 21 49.9375 
Q 18.40625 45.796875 17.09375 39.703125 
Q 19.703125 40.90625 22.953125 41.703125 
Q 26.203125 42.5 29.703125 42.5 
Q 35.59375 42.5 39.6875 40.703125 
Q 43.796875 38.90625 46.390625 35.953125 
Q 49 33 50.140625 29.140625 
Q 51.296875 25.296875 51.296875 21.09375 
Q 51.296875 17.296875 50 13.296875 
Q 48.703125 9.296875 46.046875 6 
Q 43.40625 2.703125 39.296875 0.59375 
Q 35.203125 -1.5 29.59375 -1.5 
Q 18.203125 -1.5 12.25 6.296875 
Q 6.296875 14.09375 6.296875 27.796875 
M 28.703125 34.90625 
Q 25.203125 34.90625 22.203125 34.25 
Q 19.203125 33.59375 16.203125 32.296875 
Q 16.09375 31.203125 16.046875 30.046875 
Q 16 28.90625 16 27.796875 
Q 16 23.40625 16.59375 19.5 
Q 17.203125 15.59375 18.75 12.640625 
Q 20.296875 9.703125 22.890625 7.953125 
Q 25.5 6.203125 29.5 6.203125 
Q 32.796875 6.203125 35.09375 7.59375 
Q 37.40625 9 38.90625 11.203125 
Q 40.40625 13.40625 41.046875 15.953125 
Q 41.703125 18.5 41.703125 20.90625 
Q 41.703125 27.703125 38.453125 31.296875 
Q 35.203125 34.90625 28.703125 34.90625 
" id="Ubuntu-36"/>
       <path d="M 50.90625 18 
Q 50.90625 13.796875 49.453125 10.25 
Q 48 6.703125 45.140625 4.046875 
Q 42.296875 1.40625 38 -0.046875 
Q 33.703125 -1.5 28.09375 -1.5 
Q 21.59375 -1.5 17.25 0.34375 
Q 12.90625 2.203125 10.296875 5 
Q 7.703125 7.796875 6.59375 11.140625 
Q 5.5 14.5 5.5 17.5 
Q 5.5 20.40625 6.453125 23.046875 
Q 7.40625 25.703125 8.953125 28 
Q 10.5 30.296875 12.546875 32.140625 
Q 14.59375 34 16.90625 35.40625 
Q 7.09375 41 7.09375 51.90625 
Q 7.09375 55.703125 8.59375 59.140625 
Q 10.09375 62.59375 12.84375 65.1875 
Q 15.59375 67.796875 19.5 69.34375 
Q 23.40625 70.90625 28.203125 70.90625 
Q 33.796875 70.90625 37.796875 69.203125 
Q 41.796875 67.5 44.34375 64.84375 
Q 46.90625 62.203125 48.046875 59 
Q 49.203125 55.796875 49.203125 52.796875 
Q 49.203125 49.90625 48.34375 47.34375 
Q 47.5 44.796875 46.046875 42.59375 
Q 44.59375 40.40625 42.75 38.703125 
Q 40.90625 37 38.90625 35.703125 
Q 50.703125 30.09375 50.90625 18 
M 14.90625 17.40625 
Q 14.90625 15.59375 15.546875 13.640625 
Q 16.203125 11.703125 17.796875 10.046875 
Q 19.40625 8.40625 21.90625 7.296875 
Q 24.40625 6.203125 28.203125 6.203125 
Q 31.59375 6.203125 34.140625 7.203125 
Q 36.703125 8.203125 38.296875 9.75 
Q 39.90625 11.296875 40.703125 13.296875 
Q 41.5 15.296875 41.5 17.40625 
Q 41.5 20.59375 40.296875 23 
Q 39.09375 25.40625 36.84375 27.203125 
Q 34.59375 29 31.4375 30.25 
Q 28.296875 31.5 24.296875 32.40625 
Q 19.796875 29.90625 17.34375 26.203125 
Q 14.90625 22.5 14.90625 17.40625 
M 39.90625 52.90625 
Q 39.90625 54.40625 39.25 56.203125 
Q 38.59375 58 37.1875 59.546875 
Q 35.796875 61.09375 33.59375 62.140625 
Q 31.40625 63.203125 28.203125 63.203125 
Q 25 63.203125 22.75 62.203125 
Q 20.5 61.203125 19.09375 59.640625 
Q 17.703125 58.09375 17.046875 56.25 
Q 16.40625 54.40625 16.40625 52.59375 
Q 16.40625 50.40625 17.203125 48.203125 
Q 18 46 19.703125 44.09375 
Q 21.40625 42.203125 24.15625 40.703125 
Q 26.90625 39.203125 30.703125 38.296875 
Q 34.90625 40.796875 37.40625 44.140625 
Q 39.90625 47.5 39.90625 52.90625 
" id="Ubuntu-38"/>
      </defs>
      <g style="fill:#262626;" transform="translate(963.38875 70.359162)scale(0.12 -0.12)">
       <use xlink:href="#Ubuntu-35"/>
       <use x="56.399994" xlink:href="#Ubuntu-36"/>
       <use x="112.799988" xlink:href="#Ubuntu-38"/>
      </g>
     </g>
    </g>
   </g>
   <g id="text_22">
    <!-- # Tweets -->
    <defs>
     <path d="M 32.5 52.296875 
L 44.09375 52.296875 
L 47.40625 69.296875 
L 60.40625 69.296875 
L 57.09375 52.296875 
L 64.40625 52.296875 
L 64.40625 40.796875 
L 54.90625 40.796875 
L 52.5 28.5 
L 64.40625 28.5 
L 64.40625 17 
L 50.296875 17 
L 47.09375 0 
L 34.09375 0 
L 37.296875 17 
L 25.703125 17 
L 22.5 0 
L 9.5 0 
L 12.703125 17 
L 5.5 17 
L 5.5 28.5 
L 14.90625 28.5 
L 17.296875 40.796875 
L 5.5 40.796875 
L 5.5 52.296875 
L 19.5 52.296875 
L 22.796875 69.296875 
L 35.796875 69.296875 
z
M 27.90625 28.5 
L 39.5 28.5 
L 41.90625 40.796875 
L 30.296875 40.796875 
z
" id="Ubuntu-Bold-23"/>
     <path d="M 39 30.203125 
Q 37 22.59375 34.75 15.09375 
Q 32.5 7.59375 30 0 
L 18.40625 0 
Q 16.59375 4.203125 14.5 10 
Q 12.40625 15.796875 10.15625 22.640625 
Q 7.90625 29.5 5.546875 37.140625 
Q 3.203125 44.796875 1 52.59375 
L 16.703125 52.59375 
Q 17.5 49 18.453125 44.75 
Q 19.40625 40.5 20.453125 36 
Q 21.5 31.5 22.640625 26.953125 
Q 23.796875 22.40625 25 18.203125 
Q 26.296875 22.59375 27.546875 27.1875 
Q 28.796875 31.796875 29.9375 36.25 
Q 31.09375 40.703125 32.140625 44.84375 
Q 33.203125 49 34 52.59375 
L 44.796875 52.59375 
Q 45.59375 49 46.59375 44.84375 
Q 47.59375 40.703125 48.6875 36.25 
Q 49.796875 31.796875 51 27.1875 
Q 52.203125 22.59375 53.5 18.203125 
Q 54.703125 22.40625 55.890625 26.953125 
Q 57.09375 31.5 58.140625 36 
Q 59.203125 40.5 60.140625 44.75 
Q 61.09375 49 61.90625 52.59375 
L 77.40625 52.59375 
Q 75.203125 44.796875 72.84375 37.140625 
Q 70.5 29.5 68.25 22.640625 
Q 66 15.796875 63.84375 10 
Q 61.703125 4.203125 59.90625 0 
L 48.296875 0 
Q 45.796875 7.59375 43.390625 15.09375 
Q 41 22.59375 39 30.203125 
" id="Ubuntu-Bold-77"/>
     <path d="M 6.5 65.703125 
L 21.40625 68.09375 
L 21.40625 52.59375 
L 39.296875 52.59375 
L 39.296875 40.203125 
L 21.40625 40.203125 
L 21.40625 21.703125 
Q 21.40625 17 23.046875 14.203125 
Q 24.703125 11.40625 29.703125 11.40625 
Q 32.09375 11.40625 34.640625 11.84375 
Q 37.203125 12.296875 39.296875 13.09375 
L 41.40625 1.5 
Q 38.703125 0.40625 35.390625 -0.390625 
Q 32.09375 -1.203125 27.296875 -1.203125 
Q 21.203125 -1.203125 17.203125 0.4375 
Q 13.203125 2.09375 10.796875 5.046875 
Q 8.40625 8 7.453125 12.203125 
Q 6.5 16.40625 6.5 21.5 
z
" id="Ubuntu-Bold-74"/>
     <path d="M 22.09375 10.703125 
Q 26.203125 10.703125 27.890625 11.5 
Q 29.59375 12.296875 29.59375 14.59375 
Q 29.59375 16.40625 27.390625 17.75 
Q 25.203125 19.09375 20.703125 20.796875 
Q 17.203125 22.09375 14.34375 23.5 
Q 11.5 24.90625 9.5 26.84375 
Q 7.5 28.796875 6.390625 31.5 
Q 5.296875 34.203125 5.296875 38 
Q 5.296875 45.40625 10.796875 49.703125 
Q 16.296875 54 25.90625 54 
Q 30.703125 54 35.09375 53.140625 
Q 39.5 52.296875 42.09375 51.296875 
L 39.5 39.703125 
Q 36.90625 40.59375 33.84375 41.296875 
Q 30.796875 42 27 42 
Q 20 42 20 38.09375 
Q 20 37.203125 20.296875 36.5 
Q 20.59375 35.796875 21.5 35.140625 
Q 22.40625 34.5 23.953125 33.75 
Q 25.5 33 27.90625 32.09375 
Q 32.796875 30.296875 36 28.546875 
Q 39.203125 26.796875 41.046875 24.75 
Q 42.90625 22.703125 43.65625 20.203125 
Q 44.40625 17.703125 44.40625 14.40625 
Q 44.40625 6.59375 38.546875 2.59375 
Q 32.703125 -1.40625 22 -1.40625 
Q 15 -1.40625 10.34375 -0.203125 
Q 5.703125 1 3.90625 1.796875 
L 6.40625 13.90625 
Q 10.203125 12.40625 14.203125 11.546875 
Q 18.203125 10.703125 22.09375 10.703125 
" id="Ubuntu-Bold-73"/>
    </defs>
    <g style="fill:#262626;" transform="translate(943.14875 46.376562)scale(0.14 -0.14)">
     <use xlink:href="#Ubuntu-Bold-23"/>
     <use x="69.899994" xlink:href="#Ubuntu-Bold-20"/>
     <use x="93.899979" xlink:href="#Ubuntu-Bold-54"/>
     <use x="155.190598" xlink:href="#Ubuntu-Bold-77"/>
     <use x="233.574966" xlink:href="#Ubuntu-Bold-65"/>
     <use x="291.97496" xlink:href="#Ubuntu-Bold-65"/>
     <use x="350.374954" xlink:href="#Ubuntu-Bold-74"/>
     <use x="394.774948" xlink:href="#Ubuntu-Bold-73"/>
    </g>
   </g>
  </g>
  <g id="text_23">
   <!-- Device usage  -->
   <defs>
    <path d="M 23.59375 12.703125 
Q 24.703125 12.59375 26.140625 12.546875 
Q 27.59375 12.5 29.59375 12.5 
Q 41.296875 12.5 46.9375 18.390625 
Q 52.59375 24.296875 52.59375 34.703125 
Q 52.59375 45.59375 47.1875 51.1875 
Q 41.796875 56.796875 30.09375 56.796875 
Q 28.5 56.796875 26.796875 56.75 
Q 25.09375 56.703125 23.59375 56.5 
z
M 68.703125 34.703125 
Q 68.703125 25.703125 65.890625 19 
Q 63.09375 12.296875 57.9375 7.890625 
Q 52.796875 3.5 45.390625 1.296875 
Q 38 -0.90625 28.796875 -0.90625 
Q 24.59375 -0.90625 19 -0.546875 
Q 13.40625 -0.203125 8 0.90625 
L 8 68.40625 
Q 13.40625 69.40625 19.25 69.75 
Q 25.09375 70.09375 29.296875 70.09375 
Q 38.203125 70.09375 45.453125 68.09375 
Q 52.703125 66.09375 57.890625 61.796875 
Q 63.09375 57.5 65.890625 50.796875 
Q 68.703125 44.09375 68.703125 34.703125 
" id="Ubuntu-Bold-44"/>
    <path d="M 21.296875 0 
Q 16.203125 10 10.953125 23.390625 
Q 5.703125 36.796875 1 52.59375 
L 16.796875 52.59375 
Q 17.796875 48.703125 19.140625 44.140625 
Q 20.5 39.59375 21.953125 34.9375 
Q 23.40625 30.296875 24.84375 25.890625 
Q 26.296875 21.5 27.703125 17.90625 
Q 29 21.5 30.5 25.890625 
Q 32 30.296875 33.453125 34.9375 
Q 34.90625 39.59375 36.25 44.140625 
Q 37.59375 48.703125 38.59375 52.59375 
L 54 52.59375 
Q 49.296875 36.796875 44.046875 23.390625 
Q 38.796875 10 33.703125 0 
z
" id="Ubuntu-Bold-76"/>
    <path d="M 21.90625 0 
L 7 0 
L 7 52.59375 
L 21.90625 52.59375 
z
M 23.296875 67.796875 
Q 23.296875 63.703125 20.640625 61.34375 
Q 18 59 14.40625 59 
Q 10.796875 59 8.140625 61.34375 
Q 5.5 63.703125 5.5 67.796875 
Q 5.5 71.90625 8.140625 74.25 
Q 10.796875 76.59375 14.40625 76.59375 
Q 18 76.59375 20.640625 74.25 
Q 23.296875 71.90625 23.296875 67.796875 
" id="Ubuntu-Bold-69"/>
    <path d="M 27.09375 10.40625 
Q 29.296875 10.40625 31.296875 10.5 
Q 33.296875 10.59375 34.5 10.796875 
L 34.5 22.09375 
Q 33.59375 22.296875 31.796875 22.5 
Q 30 22.703125 28.5 22.703125 
Q 26.40625 22.703125 24.546875 22.453125 
Q 22.703125 22.203125 21.296875 21.5 
Q 19.90625 20.796875 19.09375 19.59375 
Q 18.296875 18.40625 18.296875 16.59375 
Q 18.296875 13.09375 20.640625 11.75 
Q 23 10.40625 27.09375 10.40625 
M 25.90625 54 
Q 32.5 54 36.890625 52.5 
Q 41.296875 51 43.9375 48.203125 
Q 46.59375 45.40625 47.6875 41.40625 
Q 48.796875 37.40625 48.796875 32.5 
L 48.796875 1.5 
Q 45.59375 0.796875 39.890625 -0.140625 
Q 34.203125 -1.09375 26.09375 -1.09375 
Q 21 -1.09375 16.84375 -0.1875 
Q 12.703125 0.703125 9.703125 2.75 
Q 6.703125 4.796875 5.09375 8.09375 
Q 3.5 11.40625 3.5 16.203125 
Q 3.5 20.796875 5.34375 24 
Q 7.203125 27.203125 10.296875 29.09375 
Q 13.40625 31 17.40625 31.84375 
Q 21.40625 32.703125 25.703125 32.703125 
Q 28.59375 32.703125 30.84375 32.453125 
Q 33.09375 32.203125 34.5 31.796875 
L 34.5 33.203125 
Q 34.5 37 32.203125 39.296875 
Q 29.90625 41.59375 24.203125 41.59375 
Q 20.40625 41.59375 16.703125 41.046875 
Q 13 40.5 10.296875 39.5 
L 8.40625 51.5 
Q 9.703125 51.90625 11.640625 52.34375 
Q 13.59375 52.796875 15.890625 53.140625 
Q 18.203125 53.5 20.75 53.75 
Q 23.296875 54 25.90625 54 
" id="Ubuntu-Bold-61"/>
    <path d="M 19.703125 28 
Q 19.703125 15.5 29.796875 15.5 
Q 32.09375 15.5 34.09375 16.09375 
Q 36.09375 16.703125 37.5 17.5 
L 37.5 41.296875 
Q 36.40625 41.5 34.90625 41.640625 
Q 33.40625 41.796875 31.40625 41.796875 
Q 25.5 41.796875 22.59375 37.890625 
Q 19.703125 34 19.703125 28 
M 52.40625 6.59375 
Q 52.40625 -6.296875 45.84375 -12.546875 
Q 39.296875 -18.796875 25.59375 -18.796875 
Q 20.796875 -18.796875 16 -17.9375 
Q 11.203125 -17.09375 7.09375 -15.703125 
L 9.703125 -3.203125 
Q 13.203125 -4.59375 17.046875 -5.390625 
Q 20.90625 -6.203125 25.796875 -6.203125 
Q 32.203125 -6.203125 34.84375 -3.390625 
Q 37.5 -0.59375 37.5 3.796875 
L 37.5 5.703125 
Q 35.09375 4.59375 32.546875 4.046875 
Q 30 3.5 27 3.5 
Q 16.09375 3.5 10.296875 9.953125 
Q 4.5 16.40625 4.5 28 
Q 4.5 33.796875 6.296875 38.546875 
Q 8.09375 43.296875 11.546875 46.6875 
Q 15 50.09375 20 51.9375 
Q 25 53.796875 31.296875 53.796875 
Q 34 53.796875 36.84375 53.546875 
Q 39.703125 53.296875 42.5 52.890625 
Q 45.296875 52.5 47.84375 51.953125 
Q 50.40625 51.40625 52.40625 50.796875 
z
" id="Ubuntu-Bold-67"/>
   </defs>
   <g style="fill:#262626;" transform="translate(469.127187 21.113437)scale(0.18 -0.18)">
    <use xlink:href="#Ubuntu-Bold-44"/>
    <use x="73.699982" xlink:href="#Ubuntu-Bold-65"/>
    <use x="132.099976" xlink:href="#Ubuntu-Bold-76"/>
    <use x="187.09996" xlink:href="#Ubuntu-Bold-69"/>
    <use x="215.999954" xlink:href="#Ubuntu-Bold-63"/>
    <use x="265.968689" xlink:href="#Ubuntu-Bold-65"/>
    <use x="324.368683" xlink:href="#Ubuntu-Bold-20"/>
    <use x="348.368668" xlink:href="#Ubuntu-Bold-75"/>
    <use x="407.268661" xlink:href="#Ubuntu-Bold-73"/>
    <use x="455.768646" xlink:href="#Ubuntu-Bold-61"/>
    <use x="511.068634" xlink:href="#Ubuntu-Bold-67"/>
    <use x="570.468628" xlink:href="#Ubuntu-Bold-65"/>
    <use x="628.868622" xlink:href="#Ubuntu-Bold-20"/>
   </g>
  </g>
  <g id="text_24">
   <!-- (based on the source of the tweets) -->
   <defs>
    <path d="M 17.09375 29.90625 
Q 17.09375 17.09375 20.796875 6.1875 
Q 24.5 -4.703125 31.703125 -14 
L 25.09375 -18.5 
Q 17.296875 -9 12.546875 3.34375 
Q 7.796875 15.703125 7.796875 29.90625 
Q 7.796875 44.09375 12.546875 56.4375 
Q 17.296875 68.796875 25.09375 78.296875 
L 31.703125 73.796875 
Q 24.5 64.5 20.796875 53.59375 
Q 17.09375 42.703125 17.09375 29.90625 
" id="Ubuntu-28"/>
    <path d="M 49.40625 1.5 
Q 46.203125 0.703125 40.953125 -0.1875 
Q 35.703125 -1.09375 28.796875 -1.09375 
Q 22.796875 -1.09375 18.6875 0.65625 
Q 14.59375 2.40625 12.09375 5.59375 
Q 9.59375 8.796875 8.5 13.140625 
Q 7.40625 17.5 7.40625 22.796875 
L 7.40625 52 
L 16.703125 52 
L 16.703125 24.796875 
Q 16.703125 15.296875 19.703125 11.1875 
Q 22.703125 7.09375 29.796875 7.09375 
Q 31.296875 7.09375 32.890625 7.1875 
Q 34.5 7.296875 35.890625 7.4375 
Q 37.296875 7.59375 38.4375 7.75 
Q 39.59375 7.90625 40.09375 8.09375 
L 40.09375 52 
L 49.40625 52 
z
" id="Ubuntu-75"/>
    <path d="M 15.296875 29.90625 
Q 15.296875 42.703125 11.59375 53.59375 
Q 7.90625 64.5 0.703125 73.796875 
L 7.296875 78.296875 
Q 15.09375 68.796875 19.84375 56.4375 
Q 24.59375 44.09375 24.59375 29.90625 
Q 24.59375 15.703125 19.84375 3.34375 
Q 15.09375 -9 7.296875 -18.5 
L 0.703125 -14 
Q 7.90625 -4.703125 11.59375 6.1875 
Q 15.296875 17.09375 15.296875 29.90625 
" id="Ubuntu-29"/>
   </defs>
   <g style="fill:#262626;" transform="translate(415.131875 36.233437)scale(0.14 -0.14)">
    <use xlink:href="#Ubuntu-28"/>
    <use x="32.399994" xlink:href="#Ubuntu-62"/>
    <use x="91.299988" xlink:href="#Ubuntu-61"/>
    <use x="143.499985" xlink:href="#Ubuntu-73"/>
    <use x="188.099976" xlink:href="#Ubuntu-65"/>
    <use x="243.999969" xlink:href="#Ubuntu-64"/>
    <use x="302.899963" xlink:href="#Ubuntu-20"/>
    <use x="325.999954" xlink:href="#Ubuntu-6f"/>
    <use x="384.999939" xlink:href="#Ubuntu-6e"/>
    <use x="442.399933" xlink:href="#Ubuntu-20"/>
    <use x="465.499924" xlink:href="#Ubuntu-74"/>
    <use x="505.699921" xlink:href="#Ubuntu-68"/>
    <use x="562.799911" xlink:href="#Ubuntu-65"/>
    <use x="618.699905" xlink:href="#Ubuntu-20"/>
    <use x="641.799896" xlink:href="#Ubuntu-73"/>
    <use x="686.399887" xlink:href="#Ubuntu-6f"/>
    <use x="745.399872" xlink:href="#Ubuntu-75"/>
    <use x="802.799866" xlink:href="#Ubuntu-72"/>
    <use x="841.399857" xlink:href="#Ubuntu-63"/>
    <use x="887.899841" xlink:href="#Ubuntu-65"/>
    <use x="943.799835" xlink:href="#Ubuntu-20"/>
    <use x="966.899826" xlink:href="#Ubuntu-6f"/>
    <use x="1025.899811" xlink:href="#Ubuntu-66"/>
    <use x="1064.499802" xlink:href="#Ubuntu-20"/>
    <use x="1087.599792" xlink:href="#Ubuntu-74"/>
    <use x="1127.799789" xlink:href="#Ubuntu-68"/>
    <use x="1184.89978" xlink:href="#Ubuntu-65"/>
    <use x="1240.799774" xlink:href="#Ubuntu-20"/>
    <use x="1263.899765" xlink:href="#Ubuntu-74"/>
    <use x="1304.099762" xlink:href="#Ubuntu-77"/>
    <use x="1381.799744" xlink:href="#Ubuntu-65"/>
    <use x="1437.699738" xlink:href="#Ubuntu-65"/>
    <use x="1493.599731" xlink:href="#Ubuntu-74"/>
    <use x="1533.799728" xlink:href="#Ubuntu-73"/>
    <use x="1578.399719" xlink:href="#Ubuntu-29"/>
   </g>
  </g>
 </g>
 <defs>
  <clipPath id="p041774b9cd">
   <rect height="554.4" width="837" x="122.88875" y="35.513437"/>
  </clipPath>
 </defs>
</svg>
